<?xml version="1.0" standalone="no"?>
<!DOCTYPE svg PUBLIC "-//W3C//DTD SVG 20010904//EN"
 "http://www.w3.org/TR/2001/REC-SVG-20010904/DTD/svg10.dtd">
<svg version="1.0" xmlns="http://www.w3.org/2000/svg"
 width="460.000000pt" height="460.000000pt" viewBox="0 0 460.000000 460.000000"
 preserveAspectRatio="xMidYMid meet">
<metadata>
Created by potrace 1.14, written by Peter Selinger 2001-2017
</metadata>
<g transform="translate(0.000000,460.000000) scale(0.100000,-0.100000)"
fill="#000000" stroke="none">
<path d="M0 2300 l0 -2300 2300 0 2300 0 0 2300 0 2300 -2300 0 -2300 0 0
-2300z m2610 1895 c0 -24 -3 -25 -55 -25 -52 0 -55 1 -55 25 0 24 3 25 55 25
52 0 55 -1 55 -25z m110 -55 c0 -27 3 -30 30 -30 27 0 30 3 30 30 0 25 4 30
25 30 21 0 25 -5 25 -30 0 -27 3 -30 30 -30 25 0 30 -4 30 -25 0 -20 5 -25 25
-25 21 0 25 -5 25 -30 0 -27 3 -30 30 -30 27 0 30 -3 30 -30 0 -25 4 -30 25
-30 l25 0 0 -110 c0 -110 0 -110 -24 -110 -19 0 -25 6 -28 28 -4 36 -47 46
-49 10 -1 -13 -1 -26 0 -30 0 -5 -12 -8 -29 -8 -30 0 -30 1 -30 55 0 54 0 55
-30 55 -30 0 -30 -1 -30 -55 0 -52 -2 -55 -24 -55 -19 0 -25 6 -28 28 l-3 27
-192 3 -193 2 0 25 0 25 220 0 220 0 0 30 0 30 85 0 c83 0 85 0 85 24 0 19 -6
25 -27 28 -22 2 -29 9 -31 31 -3 26 -6 27 -58 27 -53 0 -54 0 -54 30 0 30 -1
30 -55 30 -52 0 -55 1 -55 25 0 21 -5 25 -30 25 -27 0 -30 3 -30 30 0 27 3 30
30 30 27 0 30 -3 30 -30z m-390 -560 c0 -30 1 -30 55 -30 l55 0 0 -110 0 -110
-25 0 c-20 0 -25 -5 -25 -25 0 -24 -3 -25 -60 -25 -57 0 -60 1 -60 25 0 20 -5
25 -25 25 l-25 0 0 110 0 110 25 0 c20 0 25 -5 25 -25 0 -21 5 -25 30 -25 25
0 30 4 30 25 0 20 -5 25 -24 25 -26 0 -39 20 -30 45 4 8 17 15 30 15 20 0 24
-5 24 -30z m500 0 c0 -27 3 -30 30 -30 l30 0 0 -110 0 -110 -30 0 c-25 0 -30
-4 -30 -25 0 -24 -3 -25 -55 -25 -52 0 -55 1 -55 25 0 21 -5 25 -30 25 l-30 0
0 73 c0 115 8 147 36 147 20 0 24 5 24 30 0 30 1 30 55 30 54 0 55 0 55 -30z"/>
</g>
</svg>
