<?xml version="1.0" standalone="no"?>
<!DOCTYPE svg PUBLIC "-//W3C//DTD SVG 20010904//EN"
 "http://www.w3.org/TR/2001/REC-SVG-20010904/DTD/svg10.dtd">
<svg version="1.0" xmlns="http://www.w3.org/2000/svg"
 width="460.000000pt" height="460.000000pt" viewBox="0 0 460.000000 460.000000"
 preserveAspectRatio="xMidYMid meet">
<metadata>
Created by potrace 1.14, written by Peter Selinger 2001-2017
</metadata>
<g transform="translate(0.000000,460.000000) scale(0.100000,-0.100000)"
fill="#000000" stroke="none">
<path d="M73 4553 c13 -113 30 -210 42 -248 7 -22 16 -53 20 -70 10 -45 53
-135 65 -135 5 0 10 -6 10 -14 0 -8 9 -24 20 -37 20 -22 19 -21 -2 21 -12 25
-24 58 -26 74 -2 16 -12 48 -22 70 -17 40 -25 69 -50 186 -17 80 -18 196 -2
186 4 -2 14 -1 22 5 10 6 0 9 -34 9 l-48 0 5 -47z"/>
<path d="M210 4588 c1 -17 35 -58 50 -58 7 0 10 13 7 33 -3 26 -8 33 -30 35
-17 2 -27 -1 -27 -10z"/>
<path d="M655 4582 c28 -9 52 -20 53 -24 2 -4 17 -8 33 -8 30 0 39 -14 17 -24
-7 -3 -3 -3 9 0 14 3 25 -1 33 -13 11 -17 11 -17 6 0 -5 16 -4 16 22 0 15 -10
29 -20 32 -23 3 -3 22 -14 43 -25 20 -11 37 -23 37 -27 0 -11 38 -48 50 -48 5
0 17 -14 25 -30 9 -17 20 -28 25 -25 6 4 10 -1 10 -10 0 -22 66 -89 79 -80 16
9 14 26 -9 68 -11 20 -18 37 -15 37 5 0 -9 18 -55 69 -16 17 -26 31 -22 31 4
0 -9 8 -28 19 -20 10 -39 31 -45 46 -12 34 -55 85 -71 85 -7 0 -9 -10 -6 -25
3 -20 0 -25 -17 -25 -12 0 -29 4 -39 9 -60 33 -91 41 -151 40 l-66 0 50 -17z"/>
<path d="M941 4584 c0 -11 3 -14 6 -6 3 7 2 16 -1 19 -3 4 -6 -2 -5 -13z"/>
<path d="M2377 4533 c37 -73 51 -93 64 -93 5 0 9 9 9 20 0 11 -4 20 -10 20 -5
0 -9 3 -8 8 0 4 -6 23 -14 42 -8 19 -18 43 -21 53 -4 9 -17 17 -30 17 l-24 0
34 -67z"/>
<path d="M2790 4593 c0 -3 11 -39 25 -79 30 -87 41 -165 51 -351 4 -97 11
-146 19 -153 7 -6 15 -7 18 -3 5 8 -9 381 -15 418 -2 11 -7 25 -10 30 -3 6 -9
24 -13 42 -6 29 -4 33 19 39 14 3 28 16 32 27 4 12 12 25 18 29 6 4 -5 8 -25
8 -24 0 -39 -5 -43 -15 -3 -8 -12 -15 -21 -15 -8 0 -15 7 -15 15 0 8 -9 15
-20 15 -11 0 -20 -3 -20 -7z"/>
<path d="M3040 4592 c0 -4 5 -13 12 -20 16 -16 28 -15 28 1 0 8 7 14 15 14 11
0 15 -13 15 -54 0 -30 5 -53 10 -53 15 0 22 22 23 75 l2 45 -52 0 c-29 0 -53
-4 -53 -8z"/>
<path d="M3181 4548 c4 -29 10 -92 14 -139 4 -47 11 -92 16 -100 16 -25 29 11
24 66 -3 28 -7 89 -11 138 -5 82 -7 87 -28 87 -22 0 -23 -2 -15 -52z"/>
<path d="M3375 4554 c4 -26 6 -94 6 -153 -1 -93 2 -112 23 -156 36 -76 66
-181 75 -269 9 -94 6 -131 -19 -251 -32 -151 -47 -207 -75 -280 -29 -76 -47
-246 -43 -392 l3 -78 -130 -3 c-135 -3 -324 18 -396 43 -89 32 -197 98 -222
137 -24 37 -47 161 -33 175 9 10 46 -81 52 -131 4 -25 11 -46 15 -46 12 0 12
8 -7 118 -23 132 -104 306 -104 222 0 -11 -4 -20 -10 -20 -14 0 -12 -40 5
-107 16 -62 20 -139 7 -147 -4 -3 -24 15 -43 40 -18 24 -54 57 -78 74 -43 29
-48 30 -160 30 -75 1 -130 6 -156 15 -56 21 -61 19 -76 -19 -10 -24 -13 -62
-9 -131 3 -53 2 -101 -1 -106 -3 -5 -28 11 -55 36 -27 25 -68 60 -92 78 -23
18 -59 44 -79 60 -45 34 -66 34 -98 0 -33 -36 -32 -50 1 -24 15 12 34 21 42
21 29 0 107 -60 202 -155 103 -103 126 -115 116 -62 -4 17 -9 89 -13 160 l-6
127 34 0 c19 0 47 -7 64 -16 23 -12 55 -15 137 -12 l108 3 98 -100 c54 -55
113 -113 132 -130 49 -43 19 -43 -65 0 -69 35 -110 46 -88 24 31 -31 163 -91
279 -127 143 -44 265 -55 641 -57 l332 -1 101 -102 c56 -56 138 -132 183 -168
45 -37 85 -75 89 -86 5 -11 13 -16 20 -12 7 5 9 2 5 -8 -3 -9 -1 -20 5 -26 8
-8 7 -13 -4 -17 -9 -4 -13 -15 -10 -34 6 -45 -14 -45 -55 0 -21 23 -67 64
-103 90 -36 27 -72 56 -82 65 -15 14 -43 31 -108 66 -19 10 -102 13 -360 13
-338 0 -419 7 -495 40 -17 8 -64 25 -105 38 -91 30 -129 49 -195 96 -56 40
-66 46 -141 90 -28 16 -58 36 -66 44 -8 8 -33 24 -56 36 -23 12 -42 26 -42 31
0 5 -21 19 -46 30 -25 12 -60 37 -77 56 -18 19 -37 34 -43 34 -12 0 -24 -101
-16 -132 7 -28 22 -21 29 12 6 31 19 47 31 36 3 -4 5 -29 4 -56 -2 -39 1 -50
13 -50 9 0 21 12 27 28 l12 27 4 -35 c5 -46 18 -60 56 -59 17 1 23 3 14 6 -11
3 -18 14 -18 28 0 29 16 41 27 22 4 -8 22 -21 39 -30 17 -9 36 -23 43 -31 7
-9 49 -34 93 -57 44 -22 89 -49 101 -59 11 -11 44 -29 73 -41 60 -25 68 -41
42 -84 -26 -43 -22 -65 5 -29 44 60 68 76 82 54 7 -12 -45 -150 -57 -150 -5 0
-17 15 -28 32 l-20 33 3 -70 c2 -59 -1 -70 -16 -73 -12 -2 -22 7 -32 30 -19
44 -19 13 0 -67 15 -65 36 -86 84 -90 26 -2 31 3 56 57 15 32 29 57 32 54 3
-2 -1 -28 -7 -58 -15 -64 -11 -102 11 -106 13 -2 23 19 47 90 34 106 70 172
115 208 28 22 40 25 106 23 48 -1 77 -6 80 -14 2 -6 13 -21 25 -33 l21 -21 3
31 3 31 136 6 c75 4 191 7 259 7 l122 0 73 -49 c84 -57 175 -144 231 -219 l39
-53 6 -117 c5 -110 4 -120 -19 -161 -47 -87 -146 -136 -184 -92 -24 28 -32 26
-36 -6 -2 -23 -8 -29 -35 -31 -47 -5 -43 -30 5 -34 l37 -3 -1 -100 c0 -55 -3
-116 -5 -135 -3 -31 -1 -35 18 -34 16 0 23 -7 27 -28 7 -38 21 -35 68 12 22
22 48 40 57 40 19 0 61 -40 61 -57 0 -6 7 -16 16 -24 8 -7 25 -30 36 -52 19
-38 19 -41 3 -81 -39 -91 -52 -113 -99 -163 -26 -28 -46 -55 -42 -61 3 -5 26
-7 51 -5 36 5 46 2 51 -12 6 -14 -16 -40 -90 -111 -53 -51 -105 -96 -116 -99
-11 -4 -20 -13 -20 -22 0 -13 8 -14 40 -9 32 5 42 3 47 -10 9 -23 -34 -54
-157 -114 -134 -65 -133 -64 -137 -77 -3 -7 19 -11 64 -10 56 2 68 -1 71 -15
4 -19 -88 -66 -183 -95 -84 -25 -112 -42 -126 -76 -25 -62 -89 -121 -173 -160
-75 -34 -173 -124 -203 -185 -15 -32 -30 -59 -33 -62 -4 -3 -27 -44 -52 -92
l-45 -88 43 0 c24 0 44 5 47 13 4 9 6 9 6 0 1 -9 22 -13 72 -13 61 0 70 2 67
17 -2 9 -18 21 -37 25 -31 9 -32 10 -15 22 27 19 68 31 60 18 -3 -6 -2 -13 4
-17 5 -3 10 -1 10 4 0 6 7 11 15 11 19 0 19 -16 0 -24 -8 -3 -12 -12 -9 -21 3
-8 1 -15 -5 -15 -6 0 -11 -4 -11 -10 0 -5 29 -9 65 -8 36 0 65 5 65 11 0 5 6
4 14 -2 11 -10 17 -8 25 6 10 17 10 17 11 1 0 -10 7 -18 15 -18 9 0 15 9 14
23 0 21 -1 21 -9 2 -8 -19 -9 -19 -9 3 -1 13 5 22 14 22 9 0 15 -10 15 -26 0
-16 4 -23 11 -18 6 3 9 17 7 29 -4 16 -1 22 9 18 7 -3 13 -16 13 -29 0 -19 5
-24 25 -24 18 0 25 5 25 20 0 11 4 20 9 20 5 0 8 -8 7 -17 -1 -14 9 -18 52
-21 29 -2 67 1 84 7 22 8 35 8 42 1 6 -6 60 -10 124 -10 96 0 117 3 127 17 13
17 51 11 40 -7 -3 -5 -1 -10 5 -10 7 0 9 12 4 35 -4 23 -2 35 5 35 6 0 11 -16
11 -35 0 -28 4 -35 19 -35 12 0 21 8 24 23 l4 22 2 -22 c1 -28 37 -32 44 -5 4
16 5 16 6 -1 1 -17 16 -18 238 -15 178 2 237 6 241 16 2 7 -2 10 -12 6 -20 -8
-20 0 0 20 14 15 14 16 -5 16 -12 0 -21 -6 -21 -14 0 -17 -18 -31 -27 -22 -10
10 29 46 49 46 26 0 23 18 -4 23 l-23 4 23 2 c19 1 22 7 22 41 0 25 -6 42 -16
48 -15 8 -15 10 0 15 23 9 20 37 -4 37 -20 0 -27 -14 -12 -23 4 -2 2 -3 -4 -1
-6 1 -16 -7 -22 -17 -7 -10 -21 -19 -31 -19 -11 0 -23 -5 -26 -10 -4 -7 -14
-2 -26 11 -11 13 -19 17 -19 9 0 -7 -3 -10 -6 -7 -10 10 16 37 35 36 9 0 11
-3 4 -5 -20 -9 -3 -32 18 -27 16 5 18 8 7 15 -9 7 -7 8 7 4 14 -4 26 2 39 19
10 14 27 25 37 25 16 0 19 8 19 59 0 54 -2 60 -22 64 -22 4 -22 4 2 6 l25 2
-25 14 -25 14 25 1 c20 0 22 2 10 10 -10 6 -11 10 -2 10 6 0 12 9 12 20 0 13
-7 20 -20 20 -11 0 -20 -4 -20 -10 0 -5 -7 -10 -15 -10 -30 0 -14 19 23 26
l37 7 -31 9 c-18 4 -31 14 -31 23 0 10 6 14 14 10 8 -3 18 -5 21 -5 4 0 0 -5
-8 -10 -12 -8 -11 -10 6 -10 30 0 26 30 -5 41 -20 8 -28 7 -37 -6 -8 -10 -14
-12 -19 -6 -13 22 7 32 46 26 34 -6 39 -4 39 13 0 21 -45 37 -56 21 -3 -5 -10
-9 -15 -9 -5 0 -2 11 8 25 19 26 35 33 30 13 -1 -6 5 -13 14 -15 12 -3 16 6
17 40 2 38 -3 49 -33 82 -20 20 -43 51 -51 68 -9 18 -23 40 -31 49 -8 9 -24
34 -36 55 -31 56 -92 143 -162 230 -56 70 -79 87 -177 135 -10 4 -27 8 -38 8
-25 0 -27 29 -2 56 27 29 73 132 74 168 1 17 -6 45 -15 63 -23 44 -126 153
-144 153 -9 0 -31 -9 -49 -21 l-34 -21 -12 29 c-7 16 -12 74 -13 133 l0 105
60 7 c81 10 155 42 195 83 30 31 33 40 45 144 7 61 19 121 28 134 21 33 39
124 35 181 -2 41 -8 52 -29 65 -47 28 -119 84 -119 93 0 4 -5 8 -11 8 -24 0
-169 114 -253 200 -49 49 -92 90 -94 90 -3 0 -14 8 -25 18 -17 15 -41 17 -174
17 l-155 0 5 190 c3 160 7 198 25 242 11 29 28 94 37 145 19 104 27 134 50
197 18 50 23 220 7 261 -5 14 -8 33 -6 43 1 10 -4 34 -12 52 -8 19 -14 44 -14
55 0 12 -13 48 -29 81 -28 55 -31 70 -37 209 -6 122 -10 150 -22 150 -11 0
-13 -9 -7 -46z m-810 -1213 c-8 -8 -13 3 -19 44 l-7 40 15 -40 c8 -21 13 -41
11 -44z m348 -623 c15 -6 27 -14 27 -18 0 -4 -21 -29 -48 -56 -26 -27 -56 -61
-67 -76 -11 -16 -23 -28 -27 -28 -11 0 -10 68 1 74 5 3 15 30 21 58 7 29 15
57 17 61 5 8 27 4 76 -15z m1207 -208 c0 -5 -4 -10 -9 -10 -6 0 -13 5 -16 10
-3 6 1 10 9 10 9 0 16 -4 16 -10z m5 -40 c-3 -5 -11 -10 -16 -10 -6 0 -7 5 -4
10 3 6 11 10 16 10 6 0 7 -4 4 -10z m39 -1291 c24 -28 36 -67 18 -55 -10 6
-45 -39 -53 -68 -7 -29 11 -56 38 -56 27 0 33 -37 8 -46 -11 -5 -12 -11 -5
-24 13 -24 13 -40 0 -40 -5 0 -10 11 -10 25 0 14 -4 25 -10 25 -5 0 -10 11
-10 24 0 14 -5 28 -11 32 -18 11 -27 -15 -18 -55 15 -64 10 -79 -13 -33 -21
44 -35 52 -44 27 -6 -14 -45 -21 -56 -10 -3 3 -2 25 3 48 4 23 4 44 1 47 -4 3
-8 14 -10 25 -2 14 0 16 6 7 7 -10 18 -3 45 27 23 26 42 38 52 35 8 -4 15 -10
15 -15 0 -14 -18 -11 -23 4 -2 6 -14 -5 -27 -25 -12 -21 -28 -38 -36 -38 -19
0 -18 -17 3 -29 13 -7 21 -5 30 7 10 14 12 15 13 2 0 -13 1 -13 10 0 8 13 10
12 10 -2 0 -10 5 -18 11 -18 14 0 3 63 -11 68 -6 2 -10 8 -10 13 0 4 6 6 13 3
12 -4 57 26 57 40 0 3 -10 5 -22 3 -17 -1 -23 3 -22 16 1 9 -2 17 -7 17 -14 0
-11 17 7 34 22 22 29 20 58 -15z m64 -65 c-4 -3 -12 5 -18 18 -12 22 -12 22 6
6 10 -10 15 -20 12 -24z m22 -54 c0 -11 19 -40 43 -64 34 -33 40 -45 30 -54
-16 -16 -23 -15 -23 3 0 8 -4 15 -10 15 -5 0 -12 11 -16 25 -3 14 -12 25 -19
25 -7 0 -16 7 -19 16 -9 24 -7 54 4 54 6 0 10 -9 10 -20z m-50 -30 c0 -16 -18
-11 -29 8 -10 16 -10 16 -11 -2 0 -11 -3 -17 -6 -13 -4 3 -4 13 0 22 4 13 10
14 26 5 11 -6 20 -15 20 -20z m30 -47 c0 -7 -4 -13 -10 -13 -5 0 -10 12 -10
28 0 21 2 24 10 12 5 -8 10 -21 10 -27z m25 -22 c3 -5 1 -12 -5 -16 -5 -3 -10
1 -10 9 0 18 6 21 15 7z m103 -41 c-1 -22 5 -30 25 -31 12 0 16 -3 10 -6 -7
-2 -13 -15 -13 -28 0 -13 -5 -27 -11 -31 -6 -3 -9 -19 -5 -35 3 -16 1 -29 -4
-29 -16 0 -22 47 -10 70 10 20 8 26 -14 49 -23 22 -26 23 -20 6 4 -11 11 -26
17 -32 20 -26 -2 -12 -44 30 l-45 43 57 0 c32 -1 57 -3 57 -6z m-388 -9 c0 -6
-4 -13 -10 -16 -5 -3 -10 1 -10 9 0 9 5 16 10 16 6 0 10 -4 10 -9z m30 -46 l1
-30 11 25 c11 25 11 25 15 3 3 -14 12 -23 22 -23 10 0 17 -8 17 -20 0 -27 -22
-26 -29 1 -4 14 -11 20 -21 16 -19 -8 -22 -2 -31 48 -5 30 -4 36 4 25 6 -8 11
-28 11 -45z m89 13 c0 -24 -3 -37 -6 -30 -2 6 -11 12 -19 12 -8 0 -14 5 -14
10 0 6 7 10 15 10 8 0 15 5 15 10 0 6 -10 8 -24 4 -35 -8 -59 8 -26 17 54 15
60 12 59 -33z m86 -20 c14 -12 25 -31 24 -42 -1 -18 -2 -18 -9 4 -5 17 -8 19
-9 8 -1 -19 -21 -26 -21 -8 0 6 -8 10 -17 11 -12 1 -10 4 7 9 17 5 19 8 8 9
-10 1 -18 8 -18 16 0 20 5 19 35 -7z m-195 -18 c0 -10 6 -20 13 -23 10 -4 10
-7 0 -18 -17 -18 -16 -29 2 -29 8 0 15 -5 15 -11 0 -5 -4 -8 -10 -4 -5 3 -3
-15 4 -40 8 -25 10 -45 6 -45 -5 0 -10 4 -12 10 -2 6 -8 6 -18 0 -13 -8 -13
-11 -1 -19 7 -5 10 -14 6 -21 -6 -9 -9 -9 -16 1 -6 11 -9 10 -15 -4 -3 -9 -10
-17 -15 -17 -15 0 -10 30 6 36 8 4 15 17 15 30 0 13 5 24 10 24 6 0 10 9 10
20 0 11 -4 20 -10 20 -5 0 -10 -9 -10 -20 0 -11 -5 -20 -11 -20 -6 0 -13 9
-16 20 -4 16 -14 20 -52 22 l-46 1 45 7 45 7 -39 1 c-36 2 -76 24 -76 42 0 4
21 18 46 30 38 17 49 19 55 8 7 -10 9 -10 9 2 0 13 1 13 10 0 8 -13 10 -13 10
2 0 11 6 15 20 11 11 -3 20 -13 20 -23z m137 3 c-1 -10 -6 -23 -10 -30 -4 -6
-2 -15 3 -18 8 -5 6 -13 -6 -26 -16 -18 -16 -19 4 -19 11 0 24 -4 27 -10 7
-11 -15 -13 -39 -4 -18 7 -22 34 -5 34 6 0 7 5 2 13 -13 21 -12 38 5 57 22 23
22 24 19 3z m191 -54 c-18 -11 -23 7 -6 25 11 12 13 12 16 -1 2 -9 -2 -19 -10
-24z m-163 21 c3 -5 1 -10 -4 -10 -6 0 -11 5 -11 10 0 6 2 10 4 10 3 0 8 -4
11 -10z m45 -29 c0 11 2 11 10 -1 5 -8 7 -16 5 -18 -7 -7 -45 10 -45 20 0 6 6
6 15 -2 12 -10 15 -10 15 1z m-40 -5 c0 -3 -4 -8 -10 -11 -5 -3 -10 -1 -10 4
0 6 5 11 10 11 6 0 10 -2 10 -4z m185 -6 c3 -5 1 -10 -4 -10 -6 0 -11 5 -11
10 0 6 2 10 4 10 3 0 8 -4 11 -10z m-300 -39 c-8 -27 -25 -27 -25 0 0 11 5 17
10 14 6 -3 10 -1 10 6 0 7 3 10 6 6 3 -3 3 -15 -1 -26z m68 -45 c12 4 24 11
25 15 2 5 8 9 14 9 6 0 8 -6 5 -14 -3 -8 -1 -17 6 -20 7 -3 -1 -3 -18 0 l-30
5 27 -17 c17 -11 26 -26 25 -39 -2 -16 4 -20 30 -20 17 0 35 -4 40 -8 4 -5 4
-8 -2 -7 -5 1 -22 2 -37 1 -25 -1 -27 -4 -21 -31 4 -23 2 -30 -8 -28 -10 2
-13 -5 -11 -24 2 -19 -1 -28 -10 -28 -10 0 -14 10 -12 35 2 22 -1 35 -9 35 -7
0 -21 13 -32 28 l-19 26 32 -23 c32 -22 34 -23 47 -5 11 16 11 20 -1 27 -8 4
-14 16 -14 26 0 25 -24 44 -56 44 -28 0 -41 18 -28 39 5 7 8 22 7 33 -2 11 5
1 13 -23 14 -37 19 -42 37 -36z m67 64 c0 -5 -2 -10 -4 -10 -3 0 -8 5 -11 10
-3 6 -1 10 4 10 6 0 11 -4 11 -10z m-288 -17 c-50 -5 -66 -28 -36 -50 16 -12
17 -15 4 -23 -12 -8 -11 -10 8 -10 12 0 22 -4 22 -10 0 -5 -12 -10 -26 -10
-23 0 -25 3 -20 25 7 27 -3 32 -22 13 -9 -9 -12 -9 -12 0 0 7 4 12 9 12 5 0
11 14 15 30 5 29 8 30 53 28 l48 -1 -43 -4z m285 -35 c-3 -7 -5 -2 -5 12 0 14
2 19 5 13 2 -7 2 -19 0 -25z m209 16 c-3 -9 -6 -18 -6 -20 0 -2 -10 -4 -22 -4
-20 0 -21 1 -3 20 22 24 40 26 31 4z m-266 -4 c0 -5 -4 -10 -9 -10 -6 0 -13 5
-16 10 -3 6 1 10 9 10 9 0 16 -4 16 -10z m-182 -17 c2 -8 -5 -13 -20 -12 -22
0 -22 1 -3 9 16 6 11 9 -23 12 l-42 5 42 -1 c23 -1 43 -6 46 -13z m582 -18 c0
-8 -4 -15 -9 -15 -5 0 -11 7 -15 15 -3 9 0 15 9 15 8 0 15 -7 15 -15z m-310
-6 c0 -5 -4 -8 -9 -4 -5 3 -12 -9 -14 -27 -4 -33 -4 -33 -5 5 -2 27 2 37 13
37 8 0 15 -5 15 -11z m145 -20 c5 0 13 8 17 18 5 10 6 -1 3 -27 -4 -34 -3 -40
5 -25 l10 20 -3 -20 c-1 -12 -11 -21 -25 -23 -17 -3 -22 2 -22 20 0 13 -3 34
-5 48 -4 18 -3 20 3 7 4 -10 12 -18 17 -18z m125 -13 c-12 -12 -15 -8 -25 22
-7 23 -6 23 14 6 13 -12 17 -22 11 -28z m-700 2 c0 12 5 22 11 22 6 0 8 -9 5
-20 -16 -56 -17 -65 -7 -50 8 12 11 5 11 -27 0 -30 -4 -41 -13 -37 -8 3 -13
-5 -15 -21 -2 -27 24 -35 45 -14 7 7 19 9 27 6 19 -8 21 -24 4 -24 -7 0 -27
-3 -45 -7 -26 -6 -32 -4 -38 13 -3 12 -3 26 1 32 5 9 -4 11 -32 6 -21 -3 -33
-3 -26 0 6 2 12 9 12 14 0 6 -6 9 -12 8 -7 -1 -24 -1 -38 1 -23 1 -23 2 -5 9
12 5 23 4 28 -3 5 -6 5 8 2 32 -6 35 -4 41 9 36 22 -8 42 6 25 17 -12 8 -12
10 0 18 10 6 20 3 32 -12 l18 -22 1 23z m261 7 c-1 -15 -24 -12 -29 3 -3 9 2
13 12 10 10 -1 17 -7 17 -13z m71 -9 c11 -16 10 -36 -2 -36 -5 0 -10 7 -10 16
0 8 -5 12 -11 8 -12 -7 -31 15 -23 28 6 9 36 -2 46 -16z m428 4 c0 -5 -4 -10
-10 -10 -5 0 -10 5 -10 10 0 6 5 10 10 10 6 0 10 -4 10 -10z m-702 -60 c0 -9
-3 -7 -8 5 -7 16 -9 10 -11 -25 -1 -34 -3 -38 -6 -16 -3 16 -1 45 3 65 7 34 7
35 14 11 5 -14 8 -32 8 -40z m676 34 c10 -26 7 -29 -24 -31 -17 -1 -30 2 -30
7 0 5 -10 9 -21 7 -12 -1 -24 5 -26 13 -3 10 -2 11 4 4 4 -6 22 -10 40 -9 19
1 30 -2 26 -8 -3 -6 -1 -7 5 -3 6 4 9 13 5 21 -3 8 -1 15 5 15 5 0 13 -7 16
-16z m-585 2 c-12 -10 -79 -16 -79 -6 0 5 19 10 42 10 23 0 39 -2 37 -4z m87
-36 c0 -24 -3 -35 -7 -28 -4 7 -11 9 -15 5 -4 -4 0 -15 8 -24 19 -22 31 -53
31 -75 -1 -41 -4 -49 -13 -43 -6 4 -8 10 -6 14 8 12 -28 9 -36 -3 -6 -8 -10
-8 -16 1 -4 6 -19 14 -34 18 -24 6 -25 9 -13 21 18 18 26 18 19 -1 -5 -12 2
-15 34 -15 43 0 70 19 30 21 -17 1 -18 3 -5 6 18 5 24 23 7 23 -19 0 -37 24
-32 42 2 10 8 18 13 18 15 0 10 22 -8 36 -17 13 -17 14 0 8 9 -3 17 -1 17 5 0
6 6 11 13 11 8 0 13 -14 13 -40z m-116 10 c0 -5 -4 -10 -9 -10 -5 0 -11 -8
-13 -17 -2 -9 -13 -17 -25 -18 -30 -2 -29 8 2 25 14 7 25 17 25 22 0 4 5 8 10
8 6 0 10 -4 10 -10z m-350 -20 c0 -5 -7 -10 -15 -10 -8 0 -15 5 -15 10 0 6 7
10 15 10 8 0 15 -4 15 -10z m80 6 c0 -3 -4 -8 -10 -11 -5 -3 -10 -1 -10 4 0 6
5 11 10 11 6 0 10 -2 10 -4z m315 -5 c3 -5 1 -12 -5 -16 -5 -3 -10 1 -10 9 0
18 6 21 15 7z m252 -13 c-3 -8 -6 -5 -6 6 -1 11 2 17 5 13 3 -3 4 -12 1 -19z
m400 16 c-3 -3 -12 -4 -19 -1 -8 3 -5 6 6 6 11 1 17 -2 13 -5z m-682 -13 c3
-5 1 -12 -5 -16 -5 -3 -10 1 -10 9 0 18 6 21 15 7z m320 -46 c-4 -25 -9 -44
-12 -41 -2 2 -1 25 2 51 4 25 9 44 12 41 2 -2 1 -25 -2 -51z m145 51 c0 -2 -7
-6 -15 -10 -8 -3 -15 -1 -15 4 0 6 7 10 15 10 8 0 15 -2 15 -4z m62 -18 c-9
-9 -15 -9 -24 0 -9 9 -7 12 12 12 19 0 21 -3 12 -12z m-854 -16 c6 -18 -15
-14 -22 4 -4 10 -1 14 6 12 6 -2 14 -10 16 -16z m346 -13 c-29 -12 -36 -10
-22 5 7 7 19 11 27 8 11 -4 10 -7 -5 -13z m490 12 c15 -6 16 -10 7 -16 -8 -4
-16 -2 -21 5 -5 8 -9 4 -13 -11 -5 -20 -8 -21 -19 -10 -10 11 -10 14 0 18 6 3
10 9 6 14 -6 11 13 11 40 0z m-879 -10 c3 -5 1 -12 -5 -16 -5 -3 -10 1 -10 9
0 18 6 21 15 7z m135 -6 c0 -8 -4 -15 -9 -15 -13 0 -22 16 -14 24 11 11 23 6
23 -9z m200 1 c-6 -6 -18 -5 -32 1 -21 10 -21 10 9 9 19 -1 28 -5 23 -10z
m-267 -16 c3 -11 1 -20 -4 -20 -5 0 -9 9 -9 20 0 11 2 20 4 20 2 0 6 -9 9 -20z
m907 10 c0 -5 -2 -10 -4 -10 -3 0 -8 5 -11 10 -3 6 -1 10 4 10 6 0 11 -4 11
-10z m-948 -23 c-5 -7 -12 -19 -15 -27 -5 -11 -3 30 2 48 1 2 6 0 11 -3 7 -4
7 -11 2 -18z m605 1 c-3 -8 -6 -5 -6 6 -1 11 2 17 5 13 3 -3 4 -12 1 -19z
m313 12 c0 -5 7 -10 16 -10 11 0 14 -8 12 -27 -3 -30 -16 -38 -38 -22 -11 8
-12 12 -2 16 14 6 16 33 2 33 -5 0 -10 5 -10 10 0 6 5 10 10 10 6 0 10 -4 10
-10z m-771 -10 c6 8 12 12 15 10 2 -3 -2 -13 -9 -24 -12 -16 -16 -17 -29 -3
-8 8 -12 17 -9 21 4 3 10 1 15 -6 6 -10 10 -10 17 2z m485 -40 c5 -39 4 -43
-8 -27 -19 25 -22 22 -22 -25 1 -22 -3 -43 -9 -45 -14 -4 -17 55 -4 80 10 17
9 19 -5 14 -10 -4 -16 -1 -16 9 0 11 4 12 19 5 22 -12 31 -5 31 22 0 32 7 16
14 -33z m-691 26 c6 -16 -2 -28 -14 -20 -12 7 -11 34 0 34 5 0 11 -6 14 -14z
m147 -6 c0 -11 -4 -20 -9 -20 -6 0 -5 -14 0 -36 6 -19 8 -41 5 -47 -2 -7 -5
-4 -5 7 -1 14 -6 17 -22 13 -15 -4 -27 1 -39 16 -15 18 -20 19 -34 8 -23 -20
-20 -32 8 -25 19 4 26 1 31 -17 4 -13 3 -25 -2 -26 -6 -2 -9 -16 -7 -31 l4
-27 -9 25 -9 25 -1 -24 c-1 -13 -4 -22 -7 -18 -9 9 7 68 17 61 5 -3 9 0 9 5 0
6 -7 11 -15 11 -8 0 -15 -7 -15 -15 0 -8 -4 -15 -9 -15 -5 0 -16 -3 -25 -6
-11 -4 -16 -1 -16 11 0 12 6 16 19 12 18 -4 18 -2 8 17 -7 11 -21 31 -31 44
-11 12 -14 22 -8 22 7 0 17 -8 23 -18 11 -18 14 -17 46 15 19 18 36 33 37 33
1 0 2 -8 2 -19 0 -13 -5 -17 -16 -13 -12 5 -13 3 -2 -10 20 -25 52 -30 52 -7
0 10 -4 19 -10 19 -6 0 -5 10 2 25 14 30 28 33 28 5z m765 10 c3 -5 1 -10 -4
-10 -6 0 -11 5 -11 10 0 6 2 10 4 10 3 0 8 -4 11 -10z m-975 -50 c0 -5 -5 -10
-11 -10 -5 0 -7 5 -4 10 3 6 8 10 11 10 2 0 4 -4 4 -10z m217 -12 c-3 -8 -6
-5 -6 6 -1 11 2 17 5 13 3 -3 4 -12 1 -19z m73 12 c-8 -5 -19 -10 -25 -10 -5
0 -3 5 5 10 8 5 20 10 25 10 6 0 3 -5 -5 -10z m110 -2 c0 -5 -16 -8 -35 -8
-28 0 -35 -4 -33 -16 2 -11 -5 -18 -19 -19 -29 -2 -29 1 2 29 23 22 85 32 85
14z m720 2 c0 -5 -4 -10 -10 -10 -5 0 -10 5 -10 10 0 6 5 10 10 10 6 0 10 -4
10 -10z m-126 -6 c9 -3 16 -10 16 -14 0 -7 -21 -7 -60 -1 -4 1 21 20 27 21 1
0 8 -3 17 -6z m43 -26 c-3 -8 -6 -5 -6 6 -1 11 2 17 5 13 3 -3 4 -12 1 -19z
m-999 6 c12 -4 22 -13 22 -20 0 -8 -2 -14 -4 -14 -2 0 -11 -3 -19 -6 -12 -4
-14 0 -11 18 2 13 2 17 -2 11 -9 -20 -104 -17 -104 2 0 11 12 15 48 15 26 0
57 -3 70 -6z m217 -14 c3 -5 1 -10 -4 -10 -6 0 -11 5 -11 10 0 6 2 10 4 10 3
0 8 -4 11 -10z m300 0 c-3 -5 -11 -10 -16 -10 -6 0 -7 5 -4 10 3 6 11 10 16
10 6 0 7 -4 4 -10z m211 -13 c1 -9 -2 -17 -7 -17 -5 0 -9 -9 -9 -21 0 -11 -4
-17 -10 -14 -6 4 -10 -5 -10 -20 0 -17 4 -24 12 -19 7 4 8 3 4 -5 -12 -20 -26
-2 -26 35 0 22 6 37 16 41 10 3 14 13 11 25 -3 11 -1 18 5 16 6 -2 12 -12 14
-21z m-328 1 c19 -19 14 -38 -9 -38 -17 0 -19 3 -10 13 8 10 7 17 -1 25 -7 7
-8 12 -2 12 6 0 15 -5 22 -12z m72 1 c0 -6 -7 -9 -15 -5 -8 3 -15 0 -15 -6 0
-6 -3 -9 -6 -5 -9 9 5 27 22 27 8 0 14 -5 14 -11z m108 -6 c0 -10 3 -26 7 -35
4 -11 3 -18 -4 -18 -6 0 -11 9 -11 21 0 15 -5 19 -16 15 -8 -3 -12 -2 -9 4 3
6 0 10 -7 10 -9 0 -9 3 2 10 23 15 39 12 38 -7z m372 -3 c0 -5 -5 -10 -11 -10
-5 0 -7 5 -4 10 3 6 8 10 11 10 2 0 4 -4 4 -10z m101 -11 c-24 -22 -37 -20
-28 6 4 8 16 15 29 15 l22 0 -23 -21z m-1171 1 c0 -5 -2 -10 -4 -10 -3 0 -8 5
-11 10 -3 6 -1 10 4 10 6 0 11 -4 11 -10z m80 0 c0 -5 -6 -7 -14 -4 -8 3 -17
1 -21 -5 -10 -17 -35 -13 -29 4 7 16 64 21 64 5z m190 4 c0 -8 -19 -13 -24 -6
-3 5 1 9 9 9 8 0 15 -2 15 -3z m97 0 c-3 -3 -12 -4 -19 -1 -8 3 -5 6 6 6 11 1
17 -2 13 -5z m110 -41 c-3 -10 -5 -2 -5 17 0 19 2 27 5 18 2 -10 2 -26 0 -35z
m-142 27 c3 -5 1 -10 -4 -10 -6 0 -11 5 -11 10 0 6 2 10 4 10 3 0 8 -4 11 -10z
m876 -4 c-1 -16 -31 -15 -31 1 0 8 7 13 16 11 8 -2 15 -7 15 -12z m-901 -4 c0
-5 -7 -9 -15 -9 -8 0 -15 4 -15 9 0 4 7 8 15 8 8 0 15 -4 15 -8z m247 -14 c-3
-8 -6 -5 -6 6 -1 11 2 17 5 13 3 -3 4 -12 1 -19z m290 0 c-3 -8 -6 -5 -6 6 -1
11 2 17 5 13 3 -3 4 -12 1 -19z m-757 2 c0 -5 -5 -10 -11 -10 -5 0 -7 5 -4 10
3 6 8 10 11 10 2 0 4 -4 4 -10z m571 -7 c16 -10 29 -23 29 -29 0 -14 -28 -27
-41 -18 -5 3 -9 0 -9 -7 0 -8 12 -10 37 -6 35 6 63 -5 63 -24 0 -5 -7 -9 -16
-9 -10 0 -14 6 -10 15 3 9 0 15 -9 15 -8 0 -15 -6 -15 -14 0 -12 -4 -12 -30 1
-24 11 -29 19 -24 37 4 18 1 25 -15 29 -25 6 -28 27 -5 27 9 0 29 -8 45 -17z
m356 -5 c-3 -8 -6 -5 -6 6 -1 11 2 17 5 13 3 -3 4 -12 1 -19z m-577 -10 c0 -4
-15 -8 -32 -8 -20 0 -28 3 -21 8 16 10 53 10 53 0z m-450 -8 c12 -8 11 -10 -7
-10 -13 0 -23 5 -23 10 0 13 11 13 30 0z m95 0 c3 -5 -3 -10 -14 -10 -12 0
-21 5 -21 10 0 6 6 10 14 10 8 0 18 -4 21 -10z m35 -12 c0 -19 -2 -20 -10 -8
-13 19 -13 30 0 30 6 0 10 -10 10 -22z m140 12 c0 -5 -8 -10 -17 -10 -15 0
-16 2 -3 10 19 12 20 12 20 0z m24 -5 c-4 -8 -8 -15 -10 -15 -2 0 -4 7 -4 15
0 8 4 15 10 15 5 0 7 -7 4 -15z m446 -5 c0 -5 -4 -10 -10 -10 -5 0 -10 5 -10
10 0 6 5 10 10 10 6 0 10 -4 10 -10z m430 0 c0 -5 -4 -10 -10 -10 -5 0 -10 5
-10 10 0 6 5 10 10 10 6 0 10 -4 10 -10z m26 -27 c-11 -11 -17 4 -9 23 7 18 8
18 11 1 2 -10 1 -21 -2 -24z m-1353 -8 c5 -26 3 -31 -16 -32 -16 -2 -18 0 -8
6 7 5 10 14 6 20 -6 11 2 48 9 40 2 -2 6 -18 9 -34z m340 5 c3 -12 -2 -20 -15
-23 -17 -5 -19 -2 -14 20 5 18 3 23 -5 17 -8 -4 -9 -3 -5 4 9 15 33 5 39 -18z
m154 24 c-3 -3 -12 -4 -19 -1 -8 3 -5 6 6 6 11 1 17 -2 13 -5z m118 -16 c0
-13 -4 -29 -8 -36 -6 -9 1 -16 23 -23 21 -8 29 -16 26 -26 -3 -8 -6 -26 -6
-39 0 -13 -4 -24 -10 -24 -5 0 -7 7 -4 15 4 8 1 15 -5 15 -6 0 -11 -4 -11 -10
0 -5 -4 -10 -10 -10 -5 0 -10 9 -10 20 0 13 7 20 19 20 33 0 33 17 0 22 -36 6
-52 -16 -44 -59 6 -38 -3 -63 -23 -63 -15 1 -15 2 -2 13 19 15 22 110 3 103
-7 -3 -15 -1 -18 4 -4 6 5 10 18 10 14 0 27 7 31 15 3 8 1 15 -4 15 -6 0 -10
4 -10 10 0 5 7 7 15 4 11 -5 15 1 15 20 0 14 4 26 8 26 4 0 8 -10 7 -22z m102
15 c-8 -7 -77 -6 -85 2 -3 3 16 5 43 5 27 0 45 -3 42 -7z m43 3 c0 -2 -7 -6
-15 -10 -8 -3 -15 -1 -15 4 0 6 7 10 15 10 8 0 15 -2 15 -4z m-653 -38 c-3 -7
-5 -2 -5 12 0 14 2 19 5 13 2 -7 2 -19 0 -25z m270 26 c-3 -3 -12 -4 -19 -1
-8 3 -5 6 6 6 11 1 17 -2 13 -5z m888 -1 c-11 -3 -26 -10 -33 -16 -7 -5 -16
-7 -19 -3 -11 11 19 26 47 25 21 -1 21 -2 5 -6z m-734 -36 c-8 -8 -11 -7 -11
4 0 20 13 34 18 19 3 -7 -1 -17 -7 -23z m151 -17 c10 0 18 6 18 14 0 18 30 30
44 16 7 -7 3 -10 -12 -10 -14 0 -22 -6 -22 -16 0 -10 5 -14 15 -10 8 3 22 9
32 13 11 4 14 3 9 -5 -4 -7 -14 -12 -22 -12 -16 0 -19 -26 -4 -35 6 -3 10 -11
10 -16 0 -6 -4 -7 -10 -4 -5 3 -10 -1 -10 -9 0 -24 20 -30 38 -12 13 13 14 18
4 25 -10 6 -9 14 3 38 16 32 40 49 50 33 3 -5 -4 -11 -15 -15 -11 -4 -18 -10
-15 -14 6 -10 58 -1 66 12 11 15 46 -2 53 -26 10 -38 7 -117 -5 -117 -6 0 -9
10 -7 23 5 27 -9 43 -43 50 -22 4 -22 4 4 6 15 0 27 6 27 11 0 6 -12 11 -27
11 -21 1 -23 3 -8 6 44 9 49 13 37 25 -9 9 -15 9 -24 0 -7 -7 -22 -12 -35 -12
-17 0 -21 -4 -16 -17 6 -16 5 -16 -10 -4 -10 8 -21 11 -24 7 -4 -4 -1 -11 6
-16 8 -4 11 -15 7 -25 -5 -13 -2 -16 11 -11 10 4 14 4 10 0 -11 -11 -87 -14
-87 -3 0 4 -7 6 -15 3 -8 -3 -13 -11 -12 -17 1 -7 -10 -13 -25 -15 -29 -3 -40
-22 -13 -22 8 0 15 -7 15 -15 0 -21 -23 -19 -37 4 -8 13 -20 18 -35 14 -22 -4
-22 -4 -5 11 11 8 25 12 33 9 8 -3 14 0 14 6 0 6 8 11 17 11 13 0 14 3 5 12
-16 16 -15 30 3 54 15 18 16 17 10 -13 -7 -35 4 -43 25 -18 7 9 10 25 6 40 -5
20 -11 25 -26 20 -21 -7 -63 32 -53 48 4 6 11 1 16 -11 6 -12 18 -22 29 -22z
m618 36 c0 -3 -4 -8 -10 -11 -5 -3 -10 -1 -10 4 0 6 5 11 10 11 6 0 10 -2 10
-4z m-965 -66 c8 0 15 -4 15 -10 0 -5 -4 -10 -10 -10 -5 0 -10 -9 -10 -19 0
-21 -17 -37 -28 -26 -3 3 0 10 8 15 12 7 13 13 4 28 -6 9 -14 33 -18 52 l-7
35 15 -32 c8 -18 22 -33 31 -33z m665 45 c0 -8 -4 -15 -10 -15 -5 0 -10 7 -10
15 0 8 5 15 10 15 6 0 10 -7 10 -15z m255 5 c3 -5 2 -10 -4 -10 -5 0 -18 -3
-28 -7 -16 -6 -16 -5 -4 10 15 19 27 22 36 7z m-1064 -18 c-7 -2 -18 1 -23 6
-8 8 -4 9 13 5 13 -4 18 -8 10 -11z m299 8 c0 -5 -2 -10 -4 -10 -3 0 -8 5 -11
10 -3 6 -1 10 4 10 6 0 11 -4 11 -10z m-390 -15 c0 6 5 3 11 -5 8 -11 12 -12
16 -2 2 6 9 10 13 7 13 -8 0 -35 -15 -35 -17 0 -45 27 -45 43 0 7 4 6 10 -3 5
-8 10 -10 10 -5z m300 -3 c3 -2 0 -7 -7 -9 -7 -2 -9 -11 -6 -20 4 -11 2 -14
-8 -11 -8 3 -13 13 -11 22 3 14 -1 16 -20 10 -20 -6 -21 -5 -9 10 13 15 46 14
61 -2z m-119 -15 c-5 -5 -17 -5 -28 2 -16 9 -15 10 9 9 16 -2 24 -6 19 -11z
m174 3 c8 -13 -15 -13 -35 0 -12 8 -11 10 7 10 12 0 25 -4 28 -10z m757 -12
c-7 -7 -12 -8 -12 -2 0 14 12 26 19 19 2 -3 -1 -11 -7 -17z m-1202 -9 c0 -5
-7 -9 -15 -9 -15 0 -20 12 -9 23 8 8 24 -1 24 -14z m207 15 c-3 -3 -12 -4 -19
-1 -8 3 -5 6 6 6 11 1 17 -2 13 -5z m293 -14 c-6 -11 -12 -20 -13 -20 -2 0 -3
9 -3 20 0 11 6 20 13 20 11 0 11 -5 3 -20z m-252 -11 c10 -13 9 -19 -4 -30
-15 -12 -16 -11 -9 10 5 18 4 22 -6 17 -8 -3 -22 -9 -31 -12 -10 -4 -18 -10
-18 -15 0 -5 8 -9 18 -10 9 0 1 -6 -18 -13 -28 -10 -37 -10 -45 0 -5 7 -21 15
-35 17 -18 3 -14 5 13 6 20 0 37 -3 37 -9 0 -5 7 -10 17 -10 13 0 11 5 -8 21
-24 21 -24 21 -1 15 13 -5 22 -3 22 3 0 6 9 11 19 11 11 0 23 5 26 11 4 6 8 9
9 7 1 -2 7 -10 14 -19z m177 -7 c-7 -8 -35 7 -35 18 0 6 7 6 20 -2 10 -7 17
-14 15 -16z m752 22 c-3 -3 -12 -4 -19 -1 -8 3 -5 6 6 6 11 1 17 -2 13 -5z
m-1067 -18 c0 -8 -51 -13 -56 -5 -3 5 9 9 25 9 17 0 31 -2 31 -4z m417 -18
c-3 -8 -6 -5 -6 6 -1 11 2 17 5 13 3 -3 4 -12 1 -19z m693 5 c0 -10 -6 -12
-22 -7 -19 6 -21 5 -11 -8 11 -12 8 -14 -17 -10 -23 3 -27 7 -17 16 25 25 67
30 67 9z m35 8 c3 -5 1 -12 -5 -16 -5 -3 -10 1 -10 9 0 18 6 21 15 7z m-1227
-18 c5 -18 -16 -16 -35 3 -15 14 -14 16 7 12 13 -1 25 -9 28 -15z m1312 6
c-23 -10 -24 -11 -6 -21 14 -8 21 -7 27 3 4 7 10 11 13 8 3 -2 1 -11 -3 -18
-6 -9 -18 -11 -40 -6 -17 4 -29 11 -25 16 3 5 -3 10 -13 10 -10 1 -4 5 12 9
44 11 64 10 35 -1z m-996 -14 c3 -8 1 -15 -4 -15 -6 0 -10 7 -10 15 0 8 2 15
4 15 2 0 6 -7 10 -15z m71 -5 c-2 -4 2 -16 10 -26 14 -19 14 -19 16 1 1 11 1
23 0 27 0 4 14 0 33 -10 l34 -17 -22 -20 c-21 -20 -44 -23 -84 -11 -11 4 -24
0 -32 -9 -7 -8 -22 -15 -34 -14 -18 0 -16 3 9 14 17 8 26 14 21 15 -6 0 -5 5
2 12 8 8 15 8 26 -1 12 -10 15 -9 13 8 -1 16 -6 19 -24 15 -14 -4 -23 -2 -23
5 0 6 7 11 15 11 8 0 15 4 15 10 0 5 7 7 15 4 8 -4 13 -9 10 -14z m90 0 c3 -5
1 -10 -4 -10 -6 0 -11 5 -11 10 0 6 2 10 4 10 3 0 8 -4 11 -10z m761 -12 c-9
-5 -23 -5 -32 0 -12 6 -7 9 16 9 23 0 28 -3 16 -9z m-89 -20 c-3 -8 -6 -5 -6
6 -1 11 2 17 5 13 3 -3 4 -12 1 -19z m-1277 8 c0 -3 -4 -8 -10 -11 -5 -3 -10
-1 -10 4 0 6 5 11 10 11 6 0 10 -2 10 -4z m77 -2 c-3 -3 -12 -4 -19 -1 -8 3
-5 6 6 6 11 1 17 -2 13 -5z m128 -4 c3 -5 1 -10 -4 -10 -6 0 -11 5 -11 10 0 6
2 10 4 10 3 0 8 -4 11 -10z m245 -1 c0 -11 -27 -12 -34 -1 -2 4 4 9 15 9 10 1
19 -2 19 -8z m450 -21 c0 -4 -5 -10 -10 -13 -6 -4 -8 -11 -5 -16 7 -10 -6 -12
-29 -3 -15 6 -15 8 1 21 17 13 16 14 -7 10 -14 -2 -33 -8 -42 -12 -10 -4 -18
-3 -18 1 0 5 17 16 38 25 27 11 42 13 55 5 9 -6 17 -14 17 -18z m417 26 c-3
-3 -12 -4 -19 -1 -8 3 -5 6 6 6 11 1 17 -2 13 -5z m93 -4 c13 -8 13 -10 -2
-10 -9 0 -24 -3 -34 -7 -16 -6 -17 -5 -4 10 18 19 20 20 40 7z m-1393 -35 c-7
-14 -18 -25 -25 -25 -7 0 -10 -4 -7 -10 3 -5 -1 -10 -9 -10 -17 0 -21 26 -8
47 4 6 16 11 27 10 12 -1 19 3 17 11 -1 8 2 11 7 8 5 -4 4 -16 -2 -31z m963
25 c0 -5 -8 -10 -17 -10 -15 0 -16 2 -3 10 19 12 20 12 20 0z m-740 -4 c0 -3
-4 -8 -10 -11 -5 -3 -10 -1 -10 4 0 6 5 11 10 11 6 0 10 -2 10 -4z m55 -5 c18
-7 17 -9 -12 -24 -36 -19 -63 -22 -63 -7 0 5 7 7 15 4 21 -9 51 16 33 27 -16
11 0 10 27 0z m300 -11 c3 -5 1 -10 -4 -10 -6 0 -11 5 -11 10 0 6 2 10 4 10 3
0 8 -4 11 -10z m740 0 c4 -6 -8 -10 -29 -10 -34 0 -48 -12 -26 -23 6 -3 5 -4
-2 -3 -7 1 -14 12 -16 24 -3 19 1 22 32 22 19 0 38 -4 41 -10z m-1148 -22 c-3
-8 -6 -5 -6 6 -1 11 2 17 5 13 3 -3 4 -12 1 -19z m1223 8 c0 -21 -21 -31 -31
-15 -5 8 -3 17 4 21 18 12 27 10 27 -6z m-418 -21 c3 -14 1 -25 -3 -25 -5 0
-9 9 -9 19 0 12 -8 21 -22 24 -21 4 -20 4 3 6 21 1 28 -4 31 -24z m-482 4 c0
-5 -4 -7 -10 -4 -5 3 -10 1 -10 -5 0 -6 -5 -8 -11 -4 -8 4 -7 9 2 15 19 12 29
11 29 -2z m316 -4 c10 -8 14 -15 8 -15 -5 0 -19 7 -30 15 -10 8 -14 15 -8 15
5 0 19 -7 30 -15z m515 2 c-1 -12 -15 -9 -19 4 -3 6 1 10 8 8 6 -3 11 -8 11
-12z"/>
<path d="M4134 1175 c3 -8 -2 -19 -12 -24 -9 -5 -13 -13 -9 -17 8 -9 36 24 37
44 0 6 -5 12 -11 12 -6 0 -9 -7 -5 -15z"/>
<path d="M4010 970 c0 -20 5 -30 15 -30 10 0 15 10 15 30 0 20 -5 30 -15 30
-10 0 -15 -10 -15 -30z"/>
<path d="M4070 990 c-12 -7 -12 -12 -3 -21 15 -15 26 -7 21 15 -2 11 -7 13
-18 6z"/>
<path d="M3945 820 c3 -5 10 -10 16 -10 5 0 9 5 9 10 0 6 -7 10 -16 10 -8 0
-12 -4 -9 -10z"/>
<path d="M3858 813 c6 -2 18 -2 25 0 6 3 1 5 -13 5 -14 0 -19 -2 -12 -5z"/>
<path d="M3888 783 c7 -3 16 -2 19 1 4 3 -2 6 -13 5 -11 0 -14 -3 -6 -6z"/>
<path d="M3935 780 c3 -5 11 -10 16 -10 6 0 7 5 4 10 -3 6 -11 10 -16 10 -6 0
-7 -4 -4 -10z"/>
<path d="M4051 694 c0 -11 3 -14 6 -6 3 7 2 16 -1 19 -3 4 -6 -2 -5 -13z"/>
<path d="M3735 596 c-11 -8 -24 -13 -30 -12 -5 2 -7 1 -2 -1 4 -3 7 -13 7 -24
0 -20 23 -25 55 -13 11 5 13 9 5 14 -6 4 -12 17 -13 28 -1 12 -2 22 -2 22 -1
0 -10 -6 -20 -14z"/>
<path d="M4480 450 c0 -5 5 -10 10 -10 6 0 10 5 10 10 0 6 -4 10 -10 10 -5 0
-10 -4 -10 -10z"/>
<path d="M4016 301 c-4 -7 -5 -15 -2 -18 9 -9 19 4 14 18 -4 11 -6 11 -12 0z"/>
<path d="M3652 111 c2 -7 7 -12 11 -12 12 1 9 15 -3 20 -7 2 -11 -2 -8 -8z"/>
<path d="M1210 4373 c0 -5 5 -26 12 -48 6 -22 11 -44 10 -48 -1 -4 5 -21 13
-38 9 -16 14 -33 11 -38 -3 -4 4 -15 15 -24 16 -14 22 -34 18 -63 0 -4 5 -10
13 -15 7 -5 13 -14 13 -21 1 -7 7 -12 14 -10 8 2 11 -3 8 -13 -4 -8 -2 -15 3
-15 16 0 60 -50 60 -68 -1 -12 -10 -5 -31 21 -17 20 -37 37 -45 37 -8 0 -14 6
-14 14 0 7 -12 22 -26 32 -14 10 -45 33 -69 51 -23 18 -54 35 -69 39 -15 3
-25 9 -22 11 10 10 -19 30 -36 25 -10 -2 -18 1 -18 7 0 6 -6 11 -14 11 -8 0
-27 10 -43 23 -43 34 -70 47 -97 47 -13 0 -27 6 -30 13 -3 6 -3 1 0 -12 4 -17
3 -21 -6 -16 -7 4 -4 -4 5 -19 10 -14 22 -26 29 -26 6 0 31 -11 56 -24 25 -14
63 -34 85 -45 22 -10 49 -29 59 -40 11 -12 23 -21 28 -21 14 0 193 -126 216
-153 74 -81 112 -130 112 -142 0 -8 11 -24 23 -37 23 -22 63 -84 98 -150 8
-16 20 -33 25 -36 5 -4 16 -20 23 -37 8 -19 15 -25 18 -17 5 12 -26 81 -58
132 -22 36 -109 192 -109 196 0 12 27 1 38 -16 13 -21 42 -28 42 -10 0 6 -11
21 -25 34 -14 13 -25 27 -25 31 0 4 -17 28 -39 54 -39 46 -113 164 -120 191
-2 8 -6 27 -9 43 -2 15 -11 27 -18 27 -8 0 -14 3 -15 8 -3 26 -9 46 -18 55 -6
6 -11 19 -11 29 0 10 -3 18 -8 18 -4 0 -13 14 -20 30 -8 18 -21 30 -33 30 -10
0 -19 -3 -19 -7z"/>
<path d="M0 4025 c0 -14 6 -25 13 -26 67 -3 144 -22 190 -45 16 -8 41 -14 55
-14 45 0 103 -23 202 -78 109 -61 142 -83 195 -135 20 -20 41 -34 46 -31 8 5
-29 64 -40 64 -6 0 -46 32 -91 74 -39 35 -140 91 -192 105 -26 7 -55 21 -65
31 -33 30 -65 44 -73 30 -7 -12 -76 -5 -95 10 -5 5 -27 11 -48 15 -20 4 -40
11 -43 16 -3 5 -16 9 -30 9 -19 0 -24 -5 -24 -25z"/>
<path d="M0 3915 c0 -19 7 -26 38 -34 20 -6 49 -11 64 -11 42 0 24 26 -28 40
-24 7 -47 17 -50 21 -10 17 -24 9 -24 -16z"/>
<path d="M3 3673 c4 -39 28 -106 65 -184 35 -76 62 -139 62 -145 0 -8 62 -136
72 -149 5 -5 18 -23 29 -38 12 -15 23 -26 26 -24 4 4 -8 32 -78 185 -16 35
-29 72 -29 82 0 10 -4 21 -9 24 -4 3 -16 27 -26 53 -25 68 -104 233 -111 233
-4 0 -4 -17 -1 -37z"/>
<path d="M3241 3638 c-4 -13 -14 -41 -21 -63 -7 -22 -21 -65 -32 -95 -10 -30
-29 -85 -40 -122 -21 -67 -21 -69 -3 -109 18 -40 19 -40 29 -17 9 22 10 21 14
-11 2 -19 -1 -53 -7 -75 -23 -90 -12 -151 17 -94 11 22 12 22 7 2 -4 -13 1
-29 12 -39 16 -17 17 -17 24 1 3 11 16 44 28 74 20 53 28 130 14 143 -11 11
-32 -28 -39 -72 -4 -23 -15 -52 -26 -64 -18 -21 -19 -21 -14 -2 8 29 35 196
37 225 2 43 0 48 -21 43 -17 -5 -20 0 -20 28 0 18 11 64 24 103 23 67 41 166
30 166 -2 0 -8 -10 -13 -22z"/>
<path d="M2941 3443 c-30 -95 -39 -183 -19 -183 10 0 20 17 27 46 13 52 27
204 18 204 -3 0 -15 -30 -26 -67z"/>
<path d="M2684 3378 c4 -18 9 -52 13 -75 7 -50 22 -59 17 -10 -1 17 -3 48 -3
68 -1 24 -7 39 -17 43 -14 5 -16 1 -10 -26z"/>
<path d="M2755 3378 c-9 -22 13 -170 26 -183 8 -7 10 16 6 84 -5 90 -19 133
-32 99z"/>
<path d="M1619 3211 c-12 -16 -42 -40 -66 -53 -36 -19 -45 -30 -54 -63 -5 -22
-14 -51 -19 -65 -5 -14 -12 -59 -14 -100 -4 -60 -26 -165 -49 -235 -2 -5 -7
-28 -11 -50 -9 -47 -38 -138 -47 -145 -3 -3 -11 -15 -18 -27 -6 -13 -15 -23
-19 -23 -9 0 -125 112 -187 182 -27 31 -77 86 -110 123 -33 36 -66 78 -74 93
-17 32 -117 165 -156 207 -31 32 -43 23 -23 -16 14 -25 78 -114 161 -222 64
-84 133 -161 306 -347 53 -56 60 -73 38 -87 -8 -4 -20 -21 -28 -37 -20 -43
-36 -42 -54 0 -10 25 -19 34 -25 28 -7 -7 -5 -23 5 -49 19 -45 8 -86 -29 -103
-30 -13 -54 1 -100 58 -52 65 -105 125 -154 173 -69 66 -107 125 -147 224 -20
51 -43 97 -51 104 -16 13 -19 49 -4 49 15 0 67 -37 112 -79 21 -19 41 -31 45
-27 14 14 -129 136 -196 167 -195 92 -240 118 -293 167 -62 56 -89 68 -62 26
25 -37 118 -111 159 -125 19 -7 35 -16 35 -20 0 -4 20 -15 44 -24 54 -21 114
-91 156 -183 17 -35 30 -67 30 -70 0 -4 14 -36 31 -72 28 -56 79 -120 167
-205 12 -12 22 -27 22 -33 0 -6 9 -16 20 -22 27 -15 110 -129 110 -152 0 -10
-17 -34 -38 -52 -50 -46 -84 -110 -122 -231 -18 -55 -36 -107 -41 -115 -45
-75 -69 -134 -69 -172 1 -79 72 -275 122 -336 8 -10 7 -22 -5 -48 -26 -53 -22
-82 11 -90 15 -3 63 -17 107 -31 44 -14 86 -27 93 -29 22 -6 13 -46 -23 -95
-38 -53 -47 -113 -24 -162 9 -20 5 -36 -25 -101 -20 -42 -45 -107 -55 -144
-20 -70 -39 -126 -51 -152 -4 -8 -19 -16 -35 -18 -17 -2 -29 -11 -32 -23 -4
-14 -11 -17 -27 -13 -14 3 -28 -1 -35 -10 -8 -9 -20 -16 -27 -16 -8 0 -13 -5
-12 -11 3 -13 -80 -61 -92 -54 -4 3 -13 -2 -20 -10 -7 -8 -18 -15 -24 -15 -14
0 -80 -68 -96 -99 -10 -20 -8 -32 21 -87 l32 -64 163 0 c113 0 164 3 164 11 0
6 7 9 15 5 15 -6 22 19 7 26 -5 1 -5 14 -1 28 7 24 7 24 9 -5 l2 -30 8 30 c6
23 8 25 9 8 0 -12 4 -29 8 -39 4 -12 3 -15 -5 -10 -7 4 -12 1 -12 -8 0 -22 30
-20 31 2 0 14 2 14 9 -3 8 -18 9 -18 10 5 1 25 1 25 10 2 12 -28 40 -30 33 -2
-3 11 -9 23 -14 26 -5 3 -9 10 -9 15 0 6 5 7 13 2 6 -4 23 -8 37 -8 16 0 26
-6 28 -19 4 -18 3 -19 -13 -3 -22 22 -25 21 -25 -6 0 -23 3 -24 84 -24 75 1
86 3 96 21 10 21 10 20 6 -1 -3 -17 1 -23 15 -23 11 0 19 7 20 18 0 14 2 14 9
-3 8 -19 9 -19 9 3 1 12 -3 22 -9 22 -5 0 -10 5 -10 11 0 8 5 8 15 -1 8 -7 15
-21 15 -31 0 -13 7 -19 24 -19 19 0 23 4 19 20 -3 11 0 20 6 20 6 0 11 -9 11
-20 0 -16 7 -20 35 -20 19 0 34 3 34 8 -5 27 2 41 18 35 11 -4 12 -8 5 -11
-18 -6 -15 -32 4 -32 13 0 15 7 9 40 -7 40 -7 40 18 29 15 -7 23 -17 20 -25
-3 -8 -9 -11 -14 -8 -5 3 -9 -4 -9 -15 0 -17 6 -20 38 -18 20 1 43 6 50 10 7
5 12 3 13 -5 0 -7 4 -4 9 7 l9 20 1 -20 c2 -17 3 -16 9 4 9 33 31 39 30 9 0
-22 -1 -22 -9 -3 -8 19 -9 19 -9 -2 -1 -17 5 -23 20 -23 11 0 17 5 14 10 -3 6
-1 10 4 10 6 0 11 -4 11 -10 0 -6 30 -10 71 -10 l70 0 -3 42 c-2 34 -7 43 -20
42 -10 -1 -18 4 -18 12 0 18 17 27 26 13 4 -8 9 -7 15 2 5 9 9 -10 9 -48 0
-40 4 -63 11 -63 7 0 9 12 5 34 -4 20 -2 37 4 41 6 4 10 -9 10 -34 0 -23 5
-41 10 -41 6 0 10 5 10 11 0 8 4 8 14 0 16 -13 37 -11 48 4 5 6 8 5 8 -2 0
-10 31 -13 121 -13 l121 0 -5 25 c-2 14 -2 23 1 21 3 -3 11 2 18 12 14 19 18
17 29 -17 5 -16 4 -21 -4 -17 -6 4 -11 1 -11 -6 0 -17 52 -19 62 -4 5 7 8 7 8
-1 0 -22 18 -14 22 9 3 24 30 32 34 10 1 -7 0 -8 -3 -2 -6 14 -23 3 -23 -16 0
-21 40 -18 41 4 0 14 2 14 7 2 4 -8 19 -16 35 -16 22 -1 27 3 27 22 0 25 14
32 26 12 4 -7 3 -8 -4 -4 -8 5 -12 -1 -12 -16 0 -18 2 -20 10 -8 6 10 10 11
10 2 0 -21 64 -10 72 13 6 19 6 18 7 -2 1 -23 31 -34 31 -11 0 9 3 9 12 0 18
-18 48 -15 48 6 1 16 1 16 14 0 24 -32 38 -22 32 25 l-5 42 11 -42 c9 -35 15
-43 33 -43 25 0 35 22 35 84 0 21 5 66 11 100 11 56 10 65 -10 103 -36 72 -26
119 39 182 38 37 43 47 56 123 8 46 16 90 18 98 3 8 5 18 5 23 1 4 12 7 25 7
23 0 55 22 56 38 1 4 5 27 11 52 5 25 16 79 23 120 27 151 69 196 94 102 15
-54 16 -76 7 -115 -10 -38 11 -35 30 6 8 17 24 48 34 67 11 19 26 47 33 61 7
15 22 42 33 60 15 27 18 48 15 104 -7 124 -4 170 12 200 8 17 26 50 39 75 14
25 32 63 41 85 39 98 70 155 83 155 25 0 28 -9 45 -164 6 -55 12 -102 15 -104
8 -8 25 10 25 27 0 28 45 106 62 109 13 3 18 -10 23 -65 4 -37 11 -84 15 -103
l7 -35 12 28 c14 35 14 105 1 144 -15 41 -56 60 -81 37 -33 -30 -52 2 -65 112
l-5 41 88 44 c48 24 90 51 95 59 14 29 68 151 68 156 0 20 -26 -8 -66 -72 -46
-72 -52 -77 -128 -114 -45 -21 -85 -35 -89 -31 -4 4 -8 37 -8 72 -1 48 7 85
31 149 26 70 30 94 25 135 -8 61 -53 165 -71 165 -18 0 -18 -15 0 -43 8 -12
20 -50 27 -85 10 -55 10 -71 -6 -123 -27 -88 -33 -87 -51 6 -4 22 -9 47 -10
55 -2 8 -6 55 -10 103 -7 91 -11 101 -33 88 -13 -8 -9 -52 25 -276 11 -77 27
-143 42 -173 17 -37 13 -51 -66 -222 -122 -267 -213 -437 -261 -487 -28 -29
-57 -65 -65 -80 -37 -72 -129 -121 -217 -117 -32 1 -63 5 -68 9 -12 7 -15 35
-3 36 4 0 27 3 52 5 58 6 108 22 142 45 14 11 31 19 36 19 13 0 118 113 146
159 13 20 27 52 31 71 4 19 11 40 16 46 17 21 50 189 60 312 11 124 7 462 -6
483 -9 14 -33 -7 -49 -45 -34 -81 -131 -113 -481 -160 -129 -18 -279 -20 -430
-6 -179 16 -220 26 -319 75 -66 33 -92 41 -98 32 -11 -17 -10 -331 1 -342 5
-6 12 -34 16 -62 6 -44 4 -53 -8 -53 -9 0 -27 -14 -40 -32 l-25 -31 -62 32
c-60 31 -66 33 -153 28 -89 -4 -90 -4 -119 25 -16 17 -27 36 -25 42 3 7 8 38
12 69 8 59 16 68 41 42 9 -8 24 -15 34 -15 10 0 20 -7 24 -15 3 -8 12 -15 21
-15 8 0 15 -4 15 -10 0 -5 4 -10 10 -10 5 0 32 -14 60 -31 58 -36 71 -33 42 8
-25 35 -76 144 -92 196 -6 20 -18 37 -26 37 -20 0 -17 -29 8 -75 25 -48 40
-105 26 -105 -11 0 -87 69 -132 120 -112 126 -178 165 -233 137 -42 -22 -81
-84 -93 -147 -12 -65 6 -180 35 -224 18 -28 18 -29 -1 -43 -10 -8 -37 -18 -59
-24 -59 -15 -89 -41 -82 -70 10 -39 8 -43 -29 -56 -35 -12 -35 -12 -51 25 -22
52 -14 200 15 265 11 26 26 47 31 47 6 0 11 7 11 15 0 8 14 34 31 57 17 24 64
90 105 148 42 57 85 109 97 115 13 5 36 23 52 38 17 15 61 53 98 83 80 65 102
66 92 4 -4 -23 -3 -40 3 -40 15 0 29 42 29 90 0 28 9 58 22 80 12 19 34 61 50
93 16 31 33 63 38 70 31 42 113 310 99 324 -3 4 -2 11 3 17 5 6 12 40 15 76
10 116 22 199 28 206 15 14 30 -10 24 -39 -5 -23 1 -41 25 -79 17 -27 37 -47
43 -45 6 2 12 23 13 47 2 35 -5 53 -38 101 -29 44 -46 59 -63 59 -41 0 -50
-25 -62 -180 -3 -41 -10 -93 -15 -115 -6 -22 -14 -60 -19 -85 -31 -176 -136
-395 -235 -493 -34 -34 -69 -66 -76 -72 -186 -134 -230 -180 -324 -334 -5 -9
-24 -36 -40 -61 -17 -25 -39 -62 -50 -83 -11 -21 -28 -45 -37 -54 -17 -15 -18
-14 -18 6 0 12 10 46 23 74 13 29 31 83 41 121 10 38 26 86 36 107 20 39 101
129 117 129 5 0 20 12 34 28 14 15 38 39 55 53 31 28 106 116 113 133 2 5 17
30 33 55 15 25 28 52 28 60 0 8 6 22 14 30 8 9 23 50 34 91 12 41 30 107 41
145 23 76 60 281 61 331 0 34 22 60 40 49 16 -10 37 12 65 68 30 58 27 72 -6
28z m1559 -1258 c3 -94 -6 -110 -56 -92 -21 7 -42 7 -69 0 -21 -6 -87 -11
-146 -11 -61 0 -117 -5 -129 -11 -12 -7 -56 -16 -97 -21 -187 -23 -190 -24
-406 -78 -118 -30 -224 -65 -237 -78 -18 -18 -45 -14 -86 13 -20 14 -49 25
-64 25 -27 0 -28 1 -28 60 0 66 12 100 41 118 16 10 26 9 58 -10 34 -19 41
-20 56 -8 9 8 21 25 26 38 9 24 12 24 77 19 283 -26 349 -29 407 -19 33 6 98
14 145 17 112 8 266 34 309 51 18 8 43 14 55 14 11 0 44 13 71 30 28 16 55 28
60 26 6 -1 11 -39 13 -83z m-1288 -7 c0 -13 -6 -29 -14 -35 -11 -9 -13 -6 -11
21 3 40 3 38 15 38 6 0 10 -11 10 -24z m-566 -15 c71 -49 73 -57 18 -64 -67
-8 -99 -25 -114 -61 -27 -63 -5 -196 32 -196 21 0 33 23 18 38 -6 6 -9 36 -6
73 5 70 21 89 73 89 l32 0 -10 -55 c-6 -30 -14 -52 -19 -49 -4 3 -6 10 -3 15
4 5 -1 9 -9 9 -9 0 -16 -7 -16 -15 0 -7 -8 -18 -17 -23 -14 -9 -11 -16 28 -54
24 -25 54 -50 67 -57 37 -20 25 -31 -32 -31 -67 0 -93 10 -139 50 -38 33 -67
108 -67 173 0 84 56 187 102 187 11 0 38 -13 62 -29z m606 22 c0 -5 -5 -15
-10 -23 -8 -12 -10 -11 -10 8 0 12 5 22 10 22 6 0 10 -3 10 -7z m20 -23 c0 -5
-2 -10 -4 -10 -3 0 -8 5 -11 10 -3 6 -1 10 4 10 6 0 11 -4 11 -10z m48 -26
c-10 -10 -28 6 -28 24 0 15 1 15 17 -1 9 -9 14 -19 11 -23z m812 -284 c3 -1
32 -2 64 -3 37 -1 61 -7 63 -14 3 -7 -3 -13 -12 -13 -12 0 -15 -5 -11 -16 9
-25 -17 -11 -32 17 l-14 24 6 -27 c7 -31 -8 -37 -23 -10 -10 16 -10 16 -11 0
0 -10 5 -18 10 -18 23 0 7 -20 -22 -28 -24 -6 -33 -14 -32 -29 0 -13 -4 -19
-13 -16 -16 6 -17 25 -1 41 16 16 -4 15 -27 -1 -17 -13 -17 -15 4 -36 13 -13
21 -25 18 -27 -2 -2 -10 2 -17 11 -7 8 -20 15 -29 15 -14 0 -14 -2 -1 -10 8
-5 11 -10 5 -10 -5 0 -17 5 -25 10 -13 9 -13 12 0 23 15 11 16 47 2 47 -4 0
-16 3 -28 6 -13 3 -28 -1 -38 -11 -13 -14 -19 -15 -32 -4 -10 8 -11 14 -4 19
18 11 110 11 110 0 0 -16 47 -12 64 6 20 19 20 25 1 18 -8 -4 -15 -10 -15 -15
0 -5 -7 -9 -16 -9 -13 0 -14 3 -4 15 11 13 6 14 -35 8 -35 -4 -46 -3 -41 5 4
7 1 12 -9 12 -9 0 -13 -5 -9 -11 4 -7 1 -10 -6 -7 -8 2 -16 10 -18 16 -2 8 11
12 40 12 26 0 38 3 30 9 -10 6 78 7 108 1z m-200 -30 c13 -8 12 -11 -5 -24
-11 -9 -27 -16 -35 -16 -9 0 -16 -9 -17 -20 -2 -18 0 -19 13 -5 9 8 20 12 25
9 6 -3 2 -12 -8 -20 -16 -12 -15 -14 17 -12 19 1 44 10 54 20 22 20 46 24 46
8 0 -5 -7 -10 -16 -10 -10 0 -14 -6 -10 -15 4 -12 -4 -15 -37 -16 l-42 -1 35
-8 c19 -5 38 -6 43 -3 4 2 14 -1 22 -7 11 -9 12 -17 4 -32 -8 -14 -14 -17 -23
-9 -17 14 -49 -18 -37 -38 5 -7 6 -22 4 -32 -3 -11 0 -19 6 -19 7 0 9 -4 6
-10 -3 -5 1 -10 10 -10 9 0 13 5 10 10 -3 6 3 10 14 10 12 0 21 -4 21 -10 0
-5 -5 -10 -12 -10 -9 0 -9 -3 0 -12 10 -10 15 -10 21 1 5 8 7 20 4 28 -8 20
11 16 32 -7 18 -19 17 -20 -5 -20 -16 0 -20 -4 -16 -15 3 -8 0 -15 -7 -15 -21
0 -90 39 -100 55 -4 9 -13 13 -18 9 -6 -4 -6 -10 1 -19 8 -10 8 -15 0 -20 -6
-4 -8 -16 -4 -28 6 -19 5 -20 -10 -5 -9 9 -13 24 -10 32 3 9 1 16 -5 16 -6 0
-11 -4 -11 -10 0 -5 -8 -7 -17 -3 -17 6 -17 5 0 -14 22 -26 22 -29 -8 -49 -23
-15 -26 -15 -54 5 -30 22 -71 28 -71 11 0 -5 12 -10 27 -10 14 0 23 -3 20 -7
-4 -4 7 -13 24 -20 28 -11 34 -11 49 2 12 11 46 17 106 21 49 3 95 7 102 9 6
3 12 0 12 -5 0 -6 -22 -10 -49 -10 -27 0 -51 -5 -53 -10 -2 -7 -14 -7 -36 -1
-26 8 -36 6 -50 -8 -20 -22 -82 -38 -82 -22 0 5 -16 13 -35 17 -19 3 -32 10
-29 15 3 5 0 9 -7 9 -14 0 -59 47 -52 54 3 3 14 1 24 -5 23 -12 24 -6 3 16
-15 15 -14 15 11 9 17 -4 26 -3 22 3 -3 5 -1 15 4 23 8 11 9 6 6 -17 -3 -26 0
-33 14 -33 24 0 30 21 11 43 -14 15 -13 17 1 17 8 0 17 -5 19 -12 3 -7 12 -9
23 -4 15 5 16 9 6 15 -9 6 -10 11 -2 15 17 11 13 23 -11 29 -12 4 -19 9 -16
12 3 4 15 2 26 -4 12 -6 39 -11 61 -11 30 0 41 -4 41 -15 0 -8 5 -15 10 -15 6
0 10 9 10 20 0 11 -7 20 -15 20 -8 0 -15 5 -15 10 0 6 9 10 20 10 20 0 27 14
13 23 -5 2 -2 2 5 0 8 -1 12 2 10 9 -3 7 -19 15 -37 19 -17 4 -30 4 -27 1 3
-3 -3 -12 -15 -20 -11 -8 -23 -11 -27 -7 -3 3 0 10 7 14 11 7 10 11 -5 20 -17
11 -16 11 5 5 16 -4 21 -3 17 5 -4 6 -14 11 -21 11 -9 0 -12 6 -9 15 4 8 1 15
-5 15 -6 0 -11 -7 -11 -15 0 -21 -20 -19 -21 3 0 14 -2 14 -9 -3 -8 -19 -9
-19 -9 0 -1 15 -3 17 -13 6 -11 -10 -10 -15 2 -24 9 -7 14 -20 12 -30 -3 -16
-10 -17 -43 -12 -28 5 -39 3 -39 -5 0 -9 -13 -11 -42 -7 -24 3 -35 3 -25 0 27
-7 20 -26 -8 -19 -15 4 -25 2 -25 -4 0 -6 5 -8 10 -5 6 3 10 2 10 -4 0 -5 8
-11 18 -13 14 -3 13 -5 -6 -10 -12 -3 -20 -2 -16 3 3 5 -4 9 -15 9 -18 0 -21
6 -21 40 0 29 5 42 20 50 16 9 20 8 20 -5 0 -8 6 -15 13 -15 6 0 23 -3 37 -6
21 -6 23 -4 13 7 -22 23 -15 39 17 39 17 0 30 5 30 10 0 6 -7 10 -15 10 -8 0
-15 4 -15 10 0 5 13 7 30 4 19 -4 30 -2 30 5 0 6 15 11 33 11 18 0 38 5 45 12
8 8 12 9 12 1 0 -6 9 -9 21 -6 12 3 18 11 15 19 -6 16 3 18 24 4z m353 -20 c3
-11 1 -18 -4 -14 -5 3 -9 12 -9 20 0 20 7 17 13 -6z m-23 -28 c-8 -2 -19 -10
-25 -17 -5 -6 -30 -14 -55 -18 l-45 -6 25 19 c14 11 34 17 45 15 11 -3 14 -2
7 1 -23 10 -3 21 30 16 18 -3 26 -7 18 -10z m-1240 -17 c27 -14 56 -25 65 -25
9 0 30 -7 47 -16 l31 -16 -7 41 c-5 31 -3 41 7 41 16 0 90 -48 95 -61 2 -5 9
-9 15 -9 13 0 102 -74 133 -110 53 -62 113 -120 123 -120 14 0 14 0 -5 56 -18
53 -13 64 21 43 35 -21 115 -99 115 -112 0 -19 32 -47 55 -47 31 0 97 -46 123
-86 18 -28 28 -34 58 -34 52 0 71 -14 102 -78 76 -154 92 -174 120 -149 17 15
22 15 75 -10 54 -26 73 -45 61 -64 -3 -5 -13 -9 -23 -9 -35 0 -60 -43 -75
-129 -20 -114 -40 -129 -71 -55 -14 34 -14 34 -82 35 -37 1 -81 4 -98 8 -31 7
-32 10 -19 64 6 26 5 27 -39 27 -25 0 -56 -4 -69 -9 -40 -15 -78 -3 -78 25 0
30 -23 40 -56 25 -13 -6 -34 -16 -46 -21 -13 -6 -43 -17 -68 -24 -39 -11 -49
-11 -77 2 -38 18 -40 34 -16 93 15 39 15 43 -2 75 -9 18 -35 47 -56 64 -43 34
-54 34 -154 -10 -70 -31 -84 -33 -92 -14 -12 31 28 122 74 169 53 53 40 72
-18 26 -36 -30 -42 -31 -76 -22 -48 14 -167 14 -252 1 -220 -34 -251 -48 -356
-163 l-65 -71 0 36 c0 23 6 42 18 50 9 7 24 27 32 43 8 17 25 42 38 57 33 36
23 58 -26 58 -26 0 -49 8 -68 22 -24 20 -38 23 -101 20 -72 -3 -73 -2 -73 22
0 14 12 40 28 58 15 18 32 41 37 52 6 10 28 24 49 31 21 8 46 20 54 29 13 13
12 15 -14 21 -54 11 -79 20 -77 30 1 5 8 10 15 11 7 1 42 9 77 18 109 28 116
56 14 56 -53 0 -67 7 -55 27 19 31 141 43 237 24 42 -8 208 4 260 19 52 14 84
11 135 -15z m1293 -35 c-4 -15 -2 -19 10 -14 12 4 14 0 10 -18 -3 -13 -10 -29
-16 -36 -5 -7 -7 -16 -3 -19 4 -4 11 -1 16 7 15 24 23 4 9 -22 -7 -12 -13 -32
-13 -43 -1 -14 -9 -21 -28 -23 -23 -3 -28 1 -28 19 0 17 -4 20 -21 16 -19 -5
-19 -4 3 16 l23 22 5 -28 c7 -39 24 -39 26 1 1 17 -2 32 -7 32 -5 0 -9 7 -9
15 0 8 5 15 10 15 6 0 10 7 10 16 0 10 -6 14 -15 10 -8 -3 -15 0 -15 6 0 8 -4
8 -12 -1 -10 -11 -10 -14 0 -18 6 -3 12 -9 12 -15 0 -7 -5 -6 -14 1 -10 8 -16
9 -21 1 -8 -13 -35 -13 -35 0 0 6 8 10 17 10 13 0 14 3 6 11 -21 21 -46 2 -40
-29 4 -19 2 -29 -6 -29 -8 0 -11 13 -9 39 2 21 8 38 13 38 5 0 8 5 7 11 -4 15
36 29 53 18 10 -6 6 -9 -16 -9 -26 -1 -28 -2 -12 -11 25 -15 64 -3 72 21 8 26
25 16 18 -10z m-633 0 c0 -5 -7 -10 -15 -10 -8 0 -15 5 -15 10 0 6 7 10 15 10
8 0 15 -4 15 -10z m160 -15 c0 -8 -7 -15 -15 -15 -26 0 -18 20 13 29 1 1 2 -6
2 -14z m300 -26 c0 -17 -4 -28 -10 -24 -5 3 -10 0 -10 -8 0 -10 7 -13 19 -10
14 3 20 -2 25 -22 4 -15 5 -30 1 -33 -3 -3 -5 3 -6 14 -1 15 -3 14 -10 -6 -8
-22 -8 -22 -4 7 l4 32 -47 -6 c-43 -5 -57 5 -15 11 11 2 18 11 17 25 0 11 5
21 13 21 7 0 13 7 13 15 0 8 2 15 5 15 3 0 5 -14 5 -31z m255 21 c-3 -5 -13
-10 -21 -10 -8 0 -14 5 -14 10 0 6 9 10 21 10 11 0 17 -4 14 -10z m45 -43 c0
-18 -6 -41 -13 -51 -17 -23 -82 -28 -82 -6 0 8 6 14 14 12 7 -2 11 3 9 10 -12
32 -19 62 -11 51 4 -6 21 -15 36 -18 23 -6 29 -4 34 14 8 31 13 26 13 -12z
m-534 1 c-10 -6 -20 -7 -24 -3 -9 8 20 25 31 18 5 -3 2 -10 -7 -15z m169 12
c3 -5 -1 -10 -10 -10 -9 0 -13 5 -10 10 3 6 8 10 10 10 2 0 7 -4 10 -10z
m-210 -20 l40 -20 -35 6 c-19 4 -38 11 -41 17 -4 5 -21 8 -38 5 -18 -3 -34 -1
-37 4 -10 16 72 7 111 -12z m-85 -25 c7 -9 11 -17 8 -20 -2 -2 -12 4 -21 15
-9 11 -13 20 -8 20 5 0 14 -7 21 -15z m265 4 c-6 -9 -64 -9 -70 1 -3 5 12 8
34 7 22 -1 38 -4 36 -8z m208 4 c-7 -2 -19 -2 -25 0 -7 3 -2 5 12 5 14 0 19
-2 13 -5z m-543 -13 c0 -5 -4 -10 -10 -10 -5 0 -10 5 -10 10 0 6 5 10 10 10 6
0 10 -4 10 -10z m50 -10 c0 -5 -4 -10 -10 -10 -5 0 -10 5 -10 10 0 6 5 10 10
10 6 0 10 -4 10 -10z m255 -10 c3 -5 1 -10 -4 -10 -6 0 -11 5 -11 10 0 6 2 10
4 10 3 0 8 -4 11 -10z m105 -1 c0 -13 -55 -18 -67 -6 -9 9 -3 12 27 12 22 1
40 -2 40 -6z m69 -30 c-17 -17 -21 -18 -16 -5 4 10 7 22 7 27 0 6 5 7 10 4 6
-3 10 0 11 7 0 9 2 10 5 1 3 -6 -5 -22 -17 -34z m-459 11 c0 -11 -7 -20 -15
-20 -18 0 -19 12 -3 28 16 16 18 15 18 -8z m520 -30 c0 -5 -7 -10 -16 -10 -8
0 -12 5 -9 10 3 6 10 10 16 10 5 0 9 -4 9 -10z m-130 -20 c0 -15 -7 -20 -26
-20 -14 0 -23 4 -19 10 3 6 13 10 21 10 8 0 12 5 9 10 -3 6 -1 10 4 10 6 0 11
-9 11 -20z m45 0 c3 -5 -1 -10 -9 -10 -9 0 -16 5 -16 10 0 6 4 10 9 10 6 0 13
-4 16 -10z m-187 -20 c13 0 13 -3 4 -12 -10 -10 -15 -10 -22 2 -5 8 -9 20 -9
25 0 6 3 4 6 -2 2 -7 12 -13 21 -13z m272 16 c0 -3 -4 -8 -10 -11 -5 -3 -10
-1 -10 4 0 6 5 11 10 11 6 0 10 -2 10 -4z m160 -1 c0 -2 -8 -21 -17 -41 -22
-47 -97 -118 -167 -158 -59 -35 -61 -36 -133 -43 -44 -5 -59 -2 -97 21 -25 15
-60 26 -80 26 -25 0 -38 6 -46 19 -12 23 -7 27 45 36 82 13 172 35 229 55 33
11 69 20 80 20 12 0 50 16 86 34 59 31 100 44 100 31z m130 -108 c0 -13 -13
-38 -29 -55 -26 -30 -29 -31 -42 -16 -11 13 -11 18 -1 21 6 3 12 11 12 19 0 8
7 14 15 14 8 0 19 9 25 20 14 26 20 25 20 -3z m-1519 -177 c19 0 8 -28 -13
-33 -26 -7 -42 11 -26 30 8 10 4 13 -21 13 -17 0 -31 -4 -31 -10 0 -5 7 -10
16 -10 8 0 12 -5 9 -10 -5 -8 -11 -7 -21 1 -11 9 -13 5 -12 -25 1 -29 5 -36
22 -37 18 -1 18 -2 -4 -9 -21 -7 -19 -8 17 -9 42 -1 42 -1 26 -21 -22 -26 -53
-29 -32 -3 13 15 10 16 -28 10 -27 -5 -43 -3 -43 3 0 5 7 10 15 10 11 0 15 12
15 45 0 29 -4 45 -12 45 -29 0 20 29 62 37 39 8 45 7 48 -9 2 -10 8 -18 13
-18z m29 29 c0 -6 7 -18 16 -27 15 -15 16 -14 10 6 -4 13 -3 22 3 22 11 0 12
-68 2 -74 -3 -2 -22 -7 -41 -10 l-35 -7 40 19 c35 17 38 21 20 28 -31 12 -50
54 -25 54 6 0 10 -5 10 -11z m-283 -33 c-3 -8 -14 -13 -24 -12 -10 2 -12 1 -5
-1 6 -3 12 -9 12 -14 0 -6 11 -2 25 8 13 10 22 24 20 31 -3 7 5 12 20 12 21 0
25 -5 24 -27 0 -24 -2 -25 -8 -9 -11 29 -19 7 -16 -47 2 -37 -1 -50 -16 -57
-24 -13 -29 -13 -29 5 0 8 8 15 18 15 15 0 17 6 14 35 -5 38 -22 59 -22 26 0
-12 -6 -20 -12 -18 -7 1 -13 -5 -13 -13 0 -8 7 -14 15 -12 12 3 13 1 3 -9 -7
-7 -13 -21 -13 -31 0 -12 -7 -18 -22 -17 -17 1 -19 2 -5 6 22 6 24 53 1 53
-10 0 -14 -6 -10 -15 7 -20 -1 -19 -26 5 -26 23 -34 20 -19 -8 6 -12 11 -29
11 -39 -1 -14 -4 -13 -15 7 -7 14 -18 26 -24 26 -6 1 -14 2 -17 3 -4 0 1 12
10 26 20 30 20 35 1 35 -8 0 -15 -7 -15 -15 0 -8 -4 -15 -10 -15 -12 0 -12 3
-4 24 3 9 14 16 24 16 11 0 22 5 25 10 4 6 10 8 15 5 5 -3 11 -1 15 5 3 5 19
10 36 10 16 0 29 5 29 12 0 6 3 9 6 5 4 -3 4 -13 1 -21z m70 -68 c-3 -7 -5 -2
-5 12 0 14 2 19 5 13 2 -7 2 -19 0 -25z m53 -5 c0 -7 -4 -13 -10 -13 -5 0 -10
12 -10 28 0 21 2 24 10 12 5 -8 10 -21 10 -27z m1388 -13 c-1 -43 -20 -55 -55
-37 -15 8 -44 20 -63 25 l-35 10 35 0 c19 0 45 3 58 7 15 5 22 3 23 -6 0 -8 4
-4 9 9 13 32 29 27 28 -8z m-1231 -15 c-2 -37 -15 -49 -38 -34 -12 8 -12 10 0
18 7 5 11 13 7 19 -5 8 16 29 31 32 1 0 1 -16 0 -35z m-457 -13 c0 -15 -2 -15
-10 -2 -13 20 -13 33 0 25 6 -3 10 -14 10 -23z m264 3 c-4 -8 -1 -15 5 -15 6
0 11 -4 11 -9 0 -5 -8 -7 -19 -4 -13 3 -17 11 -14 24 3 10 9 19 14 19 5 0 6
-7 3 -15z m426 1 c0 -3 -4 -8 -10 -11 -5 -3 -10 -1 -10 4 0 6 5 11 10 11 6 0
10 -2 10 -4z m100 -73 c0 -33 -14 -45 -23 -20 -3 7 -6 5 -6 -5 -1 -10 -5 -18
-10 -18 -9 0 -7 52 5 89 7 23 8 23 21 6 7 -11 13 -34 13 -52z m-770 42 c0 -8
-4 -15 -10 -15 -5 0 -7 7 -4 15 4 8 8 15 10 15 2 0 4 -7 4 -15z m310 5 c0 -5
-4 -10 -10 -10 -5 0 -10 5 -10 10 0 6 5 10 10 10 6 0 10 -4 10 -10z m-362 -25
c-3 -3 -9 2 -12 12 -6 14 -5 15 5 6 7 -7 10 -15 7 -18z m102 21 c0 -2 -7 -9
-15 -16 -13 -11 -14 -10 -9 4 5 14 24 23 24 12z m155 -6 c3 -5 2 -10 -4 -10
-5 0 -13 5 -16 10 -3 6 -2 10 4 10 5 0 13 -4 16 -10z m460 0 c3 -5 1 -10 -4
-10 -6 0 -11 5 -11 10 0 6 2 10 4 10 3 0 8 -4 11 -10z m-743 -18 c-10 -3 -10
-7 -1 -18 7 -8 7 -14 1 -14 -10 0 -22 23 -22 41 0 4 8 5 17 2 11 -4 13 -8 5
-11z m588 8 c0 -5 -5 -10 -11 -10 -5 0 -7 5 -4 10 3 6 8 10 11 10 2 0 4 -4 4
-10z m45 -4 c7 3 16 1 20 -5 3 -6 0 -9 -8 -5 -8 3 -17 -2 -21 -11 -9 -24 -25
-9 -18 17 3 12 7 17 9 11 3 -7 10 -10 18 -7z m-447 -3 c-10 -2 -26 -2 -35 0
-10 3 -2 5 17 5 19 0 27 -2 18 -5z m52 -10 c0 -16 2 -16 11 -3 8 11 9 4 5 -27
-5 -34 -3 -43 9 -43 8 0 15 8 15 17 0 9 2 14 5 11 4 -3 3 -17 -1 -32 -4 -19
-13 -26 -30 -26 -13 0 -24 5 -24 10 0 6 4 10 9 10 9 0 -1 69 -13 88 -4 7 -2
12 3 12 6 0 11 -8 11 -17z m76 -24 l-16 -23 0 25 c0 30 10 43 23 30 6 -6 3
-18 -7 -32z m78 15 c7 -19 -4 -45 -15 -38 -6 3 -7 14 -4 25 6 18 -4 24 -28 20
-5 -1 -6 3 -3 8 8 13 43 2 50 -15z m74 17 c18 -11 11 -63 -8 -69 -12 -4 -13
-2 -2 9 17 19 15 46 -5 58 -10 6 -13 10 -8 11 6 0 16 -4 23 -9z m317 -1 c-3
-5 -12 -10 -18 -10 -7 0 -6 4 3 10 19 12 23 12 15 0z m-508 -32 c-3 -7 -5 -2
-5 12 0 14 2 19 5 13 2 -7 2 -19 0 -25z m283 22 c0 -5 -7 -10 -15 -10 -9 0
-18 -7 -21 -15 -8 -21 -19 -19 -21 4 -2 18 12 27 45 30 6 0 12 -3 12 -9z m200
-48 c-6 -2 -10 -12 -10 -23 0 -10 -7 -19 -15 -19 -8 0 -15 5 -15 10 0 6 5 10
10 10 6 0 10 9 10 20 0 11 -4 20 -10 20 -5 0 -10 10 -10 23 1 21 2 20 25 -8
14 -16 20 -31 15 -33z m-159 -1 c8 12 10 12 19 -1 6 -10 6 -16 -3 -19 -7 -2
-15 -9 -19 -15 -5 -7 -8 -6 -9 4 0 10 -3 9 -9 -5 -7 -15 -8 -9 -5 20 6 66 8
72 12 36 3 -26 7 -31 14 -20z m-525 18 c-1 -12 5 -24 12 -26 7 -3 11 1 10 7
-3 13 49 33 56 22 2 -4 6 -20 9 -37 4 -16 4 -25 1 -19 -3 7 -15 10 -27 7 -18
-4 -19 -3 -7 7 12 9 6 10 -27 5 -41 -6 -43 -5 -43 17 0 20 7 38 15 38 1 0 1
-10 1 -21z m384 11 c0 -5 -7 -10 -15 -10 -8 0 -15 5 -15 10 0 6 7 10 15 10 8
0 15 -4 15 -10z m-98 -44 c7 4 8 2 4 -4 -4 -7 -17 -12 -29 -11 -12 0 -16 3
-10 6 8 3 11 15 8 31 l-5 27 11 -28 c6 -15 15 -24 21 -21z m-132 27 c0 -5 -11
-9 -25 -9 -14 -1 -25 2 -25 7 0 5 11 9 25 9 14 0 25 -3 25 -7z m326 -13 c0
-11 -4 -20 -8 -20 -10 0 -11 24 -1 33 9 9 9 10 9 -13z m144 10 c0 -5 -5 -10
-11 -10 -5 0 -7 5 -4 10 3 6 8 10 11 10 2 0 4 -4 4 -10z m-40 -10 c0 -5 -5
-10 -11 -10 -5 0 -7 5 -4 10 3 6 8 10 11 10 2 0 4 -4 4 -10z m-683 -20 c1 -11
-2 -20 -8 -20 -5 0 -9 9 -9 20 0 11 4 20 8 20 4 0 8 -9 9 -20z m807 -37 c-16
-12 -12 -18 10 -14 5 1 6 -5 3 -14 -7 -17 6 -19 33 -5 32 17 32 -7 0 -33 -16
-14 -30 -30 -30 -36 0 -5 -5 -13 -11 -17 -8 -4 -9 1 -4 17 4 13 12 26 16 27
16 6 9 22 -9 22 -9 0 -23 9 -30 20 -10 16 -17 18 -37 10 -16 -6 -25 -6 -25 1
0 5 8 12 18 15 34 12 77 34 65 34 -7 0 -10 7 -6 17 5 13 8 12 15 -8 7 -18 5
-27 -8 -36z m-838 -4 c1 -27 6 -55 13 -62 15 -15 14 -27 -4 -27 -8 0 -15 9
-15 20 0 12 -7 20 -16 20 -12 0 -15 -6 -10 -26 5 -17 3 -24 -4 -19 -6 4 -20
-1 -31 -11 -18 -16 -19 -16 -19 0 0 10 9 20 20 23 11 3 20 10 20 15 0 6 -7 8
-15 4 -8 -3 -15 -1 -15 4 0 5 10 10 23 12 17 2 23 11 25 38 3 27 17 60 26 60
0 0 1 -23 2 -51z m884 41 c0 -5 -4 -10 -10 -10 -5 0 -10 5 -10 10 0 6 5 10 10
10 6 0 10 -4 10 -10z m-420 -15 c0 -8 -3 -14 -7 -14 -19 3 -33 -2 -33 -11 0
-5 10 -9 23 -7 16 1 22 -3 22 -18 0 -11 7 -23 15 -27 10 -4 6 -7 -12 -7 -19
-1 -28 4 -28 14 0 8 5 15 10 15 6 0 10 5 10 10 0 6 -8 5 -20 -2 -14 -9 -23
-10 -28 -2 -4 6 -16 14 -27 19 -19 8 -18 9 5 13 13 2 33 10 44 18 25 17 26 17
26 -1z m33 -30 c5 -28 4 -34 -3 -20 -8 19 -14 73 -6 64 2 -2 6 -22 9 -44z
m-428 25 c-3 -5 -10 -10 -16 -10 -5 0 -9 5 -9 10 0 6 7 10 16 10 8 0 12 -4 9
-10z m85 0 c0 -5 -4 -10 -9 -10 -6 0 -13 5 -16 10 -3 6 1 10 9 10 9 0 16 -4
16 -10z m110 -5 c0 -8 -4 -15 -10 -15 -5 0 -10 7 -10 15 0 8 5 15 10 15 6 0
10 -7 10 -15z m104 -20 c5 -23 4 -26 -4 -15 -9 13 -11 12 -8 -5 2 -15 11 -19
38 -20 24 0 35 -5 35 -15 0 -17 -41 -15 -62 2 -9 7 -17 7 -28 -2 -20 -17 -54
-3 -61 26 -4 14 -4 28 0 31 3 4 6 -3 6 -15 0 -15 5 -20 15 -16 8 4 15 1 15 -5
0 -6 5 -11 10 -11 6 0 10 11 10 25 0 14 5 25 10 25 6 0 9 3 9 8 -6 36 6 26 15
-13z m236 25 c0 -12 -8 -12 -35 0 -18 8 -17 9 8 9 15 1 27 -3 27 -9z m160 0
c0 -5 -4 -10 -9 -10 -6 0 -13 5 -16 10 -3 6 1 10 9 10 9 0 16 -4 16 -10z m-75
-19 c-3 -11 -1 -22 5 -26 6 -4 5 -12 -5 -22 -10 -9 -13 -24 -10 -37 5 -16 4
-18 -4 -6 -9 13 -13 12 -26 -7 -9 -13 -22 -23 -28 -22 -9 0 -9 2 1 6 14 5 17
33 3 33 -5 0 -12 -6 -14 -12 -3 -7 -6 -8 -6 -3 0 6 4 17 9 25 9 13 11 13 19 0
6 -8 13 -11 18 -7 4 4 2 16 -4 26 -9 14 -8 18 3 18 7 0 11 -4 8 -9 -3 -4 0 -8
5 -8 6 0 11 9 11 21 0 11 -4 17 -10 14 -5 -3 -10 -1 -10 4 0 6 7 11 15 11 8 0
15 5 15 10 0 6 3 10 6 10 3 0 3 -9 -1 -19z m205 -1 c0 -5 -4 -10 -10 -10 -5 0
-10 5 -10 10 0 6 5 10 10 10 6 0 10 -4 10 -10z m-810 -10 c0 -5 -4 -10 -10
-10 -5 0 -10 5 -10 10 0 6 5 10 10 10 6 0 10 -4 10 -10z m70 1 c0 -5 3 -17 6
-25 4 -11 2 -15 -8 -11 -15 6 -22 45 -7 45 5 0 9 -4 9 -9z m77 -33 c-4 -14
-19 -28 -39 -36 -56 -23 -63 -28 -66 -56 -2 -14 -7 -26 -12 -26 -12 0 7 62 22
72 7 5 29 16 49 24 31 13 35 19 31 42 -4 21 -2 25 8 15 7 -6 10 -22 7 -35z
m343 35 c-43 -5 -57 -17 -42 -36 6 -7 8 -24 5 -38 -6 -21 -8 -20 -14 16 -9 56
-3 65 45 63 40 -1 40 -1 6 -5z m156 -30 c-10 -10 -19 5 -10 18 6 11 8 11 12 0
2 -7 1 -15 -2 -18z m-656 -3 c8 -5 11 -12 7 -17 -5 -4 -12 -1 -16 6 -5 8 -14
10 -21 6 -9 -5 -11 -4 -6 3 9 14 16 15 36 2z m523 3 c-7 -2 -19 -2 -25 0 -7 3
-2 5 12 5 14 0 19 -2 13 -5z m557 -18 c7 -8 21 -15 31 -15 12 0 19 -7 19 -18
0 -10 6 -24 13 -31 10 -10 9 -12 -3 -9 -8 2 -18 11 -22 21 -4 9 -21 20 -38 23
-21 5 -30 12 -30 25 0 23 13 24 30 4z m-878 -31 c-4 -23 -6 -24 -20 -10 -13
12 -13 18 -3 30 18 22 29 12 23 -20z m308 32 c0 -11 -19 -15 -25 -6 -3 5 1 10
9 10 9 0 16 -2 16 -4z m177 -2 c-3 -3 -12 -4 -19 -1 -8 3 -5 6 6 6 11 1 17 -2
13 -5z m167 -9 c-4 -8 -2 -15 4 -15 6 0 12 6 15 13 3 9 8 9 17 1 9 -9 8 -18
-5 -38 -10 -15 -23 -26 -29 -25 -18 3 -46 -12 -40 -22 3 -5 10 -6 17 -2 6 4
25 8 41 10 16 2 38 11 49 20 18 17 18 16 15 -22 -3 -33 1 -41 22 -52 l25 -13
-31 2 c-20 1 -30 7 -27 14 6 15 -28 26 -70 23 -45 -4 -68 11 -60 40 5 19 11
22 35 19 18 -3 27 -1 25 6 -2 6 -14 10 -26 9 -11 -2 -21 2 -21 7 0 6 7 10 15
10 8 0 15 7 15 15 0 8 4 15 10 15 5 0 7 -7 4 -15z m-94 -5 c0 -5 -7 -10 -16
-10 -8 0 -12 5 -9 10 3 6 10 10 16 10 5 0 9 -4 9 -10z m-717 -7 c-7 -2 -19 -2
-25 0 -7 3 -2 5 12 5 14 0 19 -2 13 -5z m937 -2 c0 -5 -3 -17 -6 -26 -5 -13
-8 -14 -15 -3 -7 10 -12 11 -29 1 -33 -21 -45 -15 -19 11 24 24 69 35 69 17z
m34 -21 c-5 -22 -2 -31 11 -36 10 -4 21 -1 25 7 5 7 13 10 17 5 4 -5 2 -11 -4
-13 -7 -3 -13 -12 -13 -20 0 -14 -3 -14 -20 2 -15 14 -20 15 -21 4 0 -8 -5 -1
-9 15 -6 18 -5 35 3 47 16 26 18 24 11 -11z m199 9 c5 -18 2 -20 -16 -15 -12
3 -25 6 -28 6 -4 0 -9 7 -13 15 -4 11 2 15 23 15 21 0 30 -6 34 -21z m-813 1
c0 -5 -4 -10 -10 -10 -5 0 -10 5 -10 10 0 6 5 10 10 10 6 0 10 -4 10 -10z
m-270 -10 c0 -5 -4 -10 -10 -10 -5 0 -8 -6 -6 -12 1 -7 1 -10 -1 -5 -7 11 -31
8 -36 -5 -4 -10 -6 -10 -6 0 -1 8 8 16 19 19 11 3 20 9 20 14 0 5 5 9 10 9 6
0 10 -4 10 -10z m527 -12 c-3 -8 -6 -5 -6 6 -1 11 2 17 5 13 3 -3 4 -12 1 -19z
m-487 -4 c0 -2 -7 -4 -15 -4 -8 0 -15 4 -15 10 0 5 7 7 15 4 8 -4 15 -8 15
-10z m-280 2 c0 -3 -4 -8 -10 -11 -5 -3 -10 -1 -10 4 0 6 5 11 10 11 6 0 10
-2 10 -4z m45 -6 c3 -5 -1 -10 -10 -10 -9 0 -13 5 -10 10 3 6 8 10 10 10 2 0
7 -4 10 -10z m80 0 c-3 -5 -10 -10 -16 -10 -5 0 -9 5 -9 10 0 6 7 10 16 10 8
0 12 -4 9 -10z m225 -15 c0 -16 -6 -25 -15 -25 -8 0 -15 5 -15 10 0 6 5 10 11
10 8 0 8 5 -1 15 -10 12 -10 15 4 15 10 0 16 -9 16 -25z m200 21 c0 -2 -7 -7
-16 -10 -8 -3 -12 -2 -9 4 6 10 25 14 25 6z m80 -11 c-7 -8 -17 -12 -23 -8 -6
4 -3 9 9 14 27 11 28 11 14 -6z m100 -23 c0 -14 -2 -14 -9 -3 -6 9 -18 11 -34
7 -14 -3 -29 -2 -32 4 -3 5 3 10 14 10 12 0 21 5 21 10 0 7 6 7 20 0 11 -6 20
-18 20 -28z m475 -8 c-8 -16 -15 -23 -15 -16 0 17 20 55 26 49 2 -2 -2 -17
-11 -33z m95 15 c0 -4 -7 -6 -15 -3 -8 4 -15 10 -15 15 0 4 7 6 15 3 8 -4 15
-10 15 -15z m45 11 c3 -6 -1 -7 -9 -4 -18 7 -21 14 -7 14 6 0 13 -4 16 -10z
m32 -12 c-3 -8 -6 -5 -6 6 -1 11 2 17 5 13 3 -3 4 -12 1 -19z m-826 -15 c-8
-15 -10 -15 -11 -2 0 17 10 32 18 25 2 -3 -1 -13 -7 -23z m229 17 c0 -5 -4
-10 -10 -10 -5 0 -10 5 -10 10 0 6 5 10 10 10 6 0 10 -4 10 -10z m810 -20
c-12 -8 -13 -13 -3 -28 10 -17 8 -21 -14 -31 -32 -15 -41 -7 -18 15 13 14 14
19 3 25 -11 7 -11 9 0 9 7 0 11 4 7 10 -3 5 -12 7 -20 3 -8 -3 -15 0 -15 5 0
6 12 12 28 14 33 4 53 -9 32 -22z m-1590 11 c0 -5 -13 -11 -30 -13 -17 -3 -30
0 -30 6 0 6 14 12 30 13 17 1 30 -2 30 -6z m80 -1 c0 -5 -11 -10 -25 -10 -14
0 -25 5 -25 10 0 6 11 10 25 10 14 0 25 -4 25 -10z m203 -1 c-8 -8 -16 -8 -30
0 -16 9 -14 10 12 11 21 0 26 -3 18 -11z m346 -21 c-8 -14 -14 -18 -17 -10 -4
13 17 46 25 38 3 -2 -1 -15 -8 -28z m248 26 c-3 -3 -12 -4 -19 -1 -8 3 -5 6 6
6 11 1 17 -2 13 -5z m199 -31 c-11 -11 -17 4 -9 23 7 18 8 18 11 1 2 -10 1
-21 -2 -24z m453 7 c12 0 9 -29 -3 -33 -7 -3 -11 10 -12 32 -1 20 1 28 3 19 3
-10 8 -18 12 -18z m-290 -22 c1 -5 -6 -8 -15 -8 -11 0 -14 5 -10 16 3 9 6 21
7 27 0 12 17 -20 18 -35z m251 27 c0 -8 5 -15 11 -15 5 0 7 -5 4 -10 -4 -6
-14 -1 -25 12 l-18 23 -23 -25 c-16 -18 -20 -20 -16 -7 4 10 7 23 7 28 0 5 14
9 30 9 20 0 30 -5 30 -15z m-1279 -22 c-12 -20 -14 -14 -5 12 4 9 9 14 11 11
3 -2 0 -13 -6 -23z m29 7 c0 -11 -4 -20 -9 -20 -5 0 -7 9 -4 20 3 11 7 20 9
20 2 0 4 -9 4 -20z m1044 -5 c-4 -10 1 -12 18 -9 13 2 16 1 8 -3 -8 -3 -20
-13 -26 -21 -6 -8 -16 -12 -23 -8 -9 6 -9 11 -1 21 6 7 8 20 4 29 -5 12 -2 15
9 10 9 -3 13 -12 11 -19z m66 15 c0 -5 -4 -10 -9 -10 -6 0 -13 5 -16 10 -3 6
1 10 9 10 9 0 16 -4 16 -10z m46 -17 c-10 -10 -19 5 -10 18 6 11 8 11 12 0 2
-7 1 -15 -2 -18z m-1396 7 c12 -8 9 -10 -13 -10 -16 0 -26 4 -22 10 8 12 16
12 35 0z m80 -16 c0 -14 -4 -23 -9 -20 -5 3 -7 15 -4 26 7 28 13 25 13 -6z
m586 -1 c-10 -10 -19 5 -10 18 6 11 8 11 12 0 2 -7 1 -15 -2 -18z m94 12 c0
-8 -4 -15 -10 -15 -5 0 -10 7 -10 15 0 8 5 15 10 15 6 0 10 -7 10 -15z m130 0
c0 -8 -2 -15 -4 -15 -2 0 -6 7 -10 15 -3 8 -1 15 4 15 6 0 10 -7 10 -15z
m-572 -40 c-9 -20 -38 -31 -38 -14 0 4 -3 16 -6 26 -4 12 -3 14 3 6 6 -8 14
-9 23 -3 8 6 11 10 7 10 -5 0 -5 5 -1 11 12 20 23 -12 12 -36z m242 30 c0 -8
-7 -15 -15 -15 -13 0 -14 3 -3 15 16 18 18 18 18 0z m801 -8 c-10 -9 -11 -8
-5 6 3 10 9 15 12 12 3 -3 0 -11 -7 -18z m-1405 -12 l28 -26 -24 -16 c-22 -16
-22 -17 -4 -23 10 -4 31 -1 46 6 31 16 48 18 48 5 0 -5 -16 -12 -35 -15 -19
-4 -35 -12 -35 -18 0 -5 6 -8 14 -5 8 3 32 8 53 11 38 5 38 5 -4 -6 -45 -11
-55 -23 -25 -31 14 -4 14 -5 1 -6 -9 0 -22 6 -29 14 -16 19 -37 19 -57 0 -8
-8 -19 -13 -24 -10 -12 8 -12 42 1 50 6 3 10 11 10 16 0 6 -4 7 -10 4 -5 -3
-10 -1 -10 4 0 6 11 11 25 11 27 0 34 17 10 26 -8 4 -15 12 -15 20 0 19 5 18
36 -11z m181 19 c-3 -3 -12 -4 -19 -1 -8 3 -5 6 6 6 11 1 17 -2 13 -5z m27
-18 c-2 -14 0 -28 6 -31 17 -11 0 -25 -28 -24 -24 2 -24 2 -4 6 22 4 32 23 11
23 -6 0 -7 5 -2 13 4 6 8 15 9 20 3 15 4 17 8 17 3 0 3 -11 0 -24z m849 17
c-7 -2 -21 -2 -30 0 -10 3 -4 5 12 5 17 0 24 -2 18 -5z m-1009 -12 c4 -5 -3
-7 -14 -4 -23 6 -26 13 -6 13 8 0 17 -4 20 -9z m626 -31 c0 -22 -2 -40 -4 -40
-2 0 -6 18 -8 40 -2 22 0 40 4 40 5 0 8 -18 8 -40z m91 4 c-5 -16 -10 -21 -10
-12 -1 18 10 51 15 45 2 -1 -1 -16 -5 -33z m198 -6 c1 -5 -3 -8 -9 -8 -5 0
-10 12 -9 28 0 24 1 25 9 7 5 -11 9 -23 9 -27z m251 22 c0 -22 -29 -26 -65 -9
-16 7 -13 8 15 6 24 -1 34 2 33 11 -2 6 2 12 7 12 6 0 10 -9 10 -20z m227 -27
c-3 -10 -5 -2 -5 17 0 19 2 27 5 18 2 -10 2 -26 0 -35z m-460 5 c-3 -7 -5 -2
-5 12 0 14 2 19 5 13 2 -7 2 -19 0 -25z m27 -22 c-3 -8 4 -16 18 -20 55 -14
64 2 22 41 -14 13 -24 26 -21 29 10 11 47 -17 52 -39 5 -19 11 -22 45 -19 22
2 38 7 35 12 -2 4 4 7 15 6 41 -2 19 -21 -27 -24 -27 -2 -49 -7 -51 -13 -2 -5
-8 -9 -14 -9 -5 0 -18 -10 -28 -22 -10 -13 -22 -19 -26 -15 -5 4 -2 12 5 16
15 10 6 32 -12 30 -28 -3 -32 3 -28 44 3 36 5 39 12 19 5 -12 6 -28 3 -36z
m256 44 c0 -5 -7 -10 -15 -10 -8 0 -15 5 -15 10 0 6 7 10 15 10 8 0 15 -4 15
-10z m197 -27 c-3 -10 -5 -4 -5 12 0 17 2 24 5 18 2 -7 2 -21 0 -30z m20 0
c-3 -10 -5 -4 -5 12 0 17 2 24 5 18 2 -7 2 -21 0 -30z m188 27 c3 -5 1 -10 -4
-10 -6 0 -11 5 -11 10 0 6 2 10 4 10 3 0 8 -4 11 -10z m-558 -6 c-3 -3 -12 -4
-19 -1 -8 3 -5 6 6 6 11 1 17 -2 13 -5z m240 -16 c-3 -8 -6 -5 -6 6 -1 11 2
17 5 13 3 -3 4 -12 1 -19z m-1212 3 c3 -5 1 -12 -5 -16 -5 -3 -10 1 -10 9 0
18 6 21 15 7z m514 -33 c1 -5 -3 -8 -9 -8 -5 0 -10 12 -9 28 0 24 1 25 9 7 5
-11 9 -23 9 -27z m160 21 c-15 -9 -32 -2 -24 11 3 5 13 6 21 3 12 -4 13 -8 3
-14z m-114 2 c3 -5 1 -12 -5 -16 -5 -3 -10 1 -10 9 0 18 6 21 15 7z m430 -1
c3 -6 -4 -10 -17 -10 -18 0 -20 2 -8 10 19 12 18 12 25 0z m110 -9 c-6 -20 28
-71 41 -59 4 4 1 14 -6 23 -7 8 -8 15 -2 15 5 0 15 -7 22 -15 10 -11 9 -18 -3
-30 -9 -8 -20 -15 -24 -15 -13 0 -54 80 -47 91 10 17 25 9 19 -10z m65 9 c0
-13 -20 -13 -40 0 -12 8 -9 10 13 10 15 0 27 -4 27 -10z m80 -15 c0 -14 -4
-25 -9 -25 -4 0 -6 11 -3 25 2 14 6 25 8 25 2 0 4 -11 4 -25z m182 -22 c7 -15
7 -30 -1 -50 -10 -27 -10 -27 -5 8 5 31 3 37 -16 42 -19 5 -20 8 -8 26 8 13
14 17 16 9 2 -7 8 -23 14 -35z m18 43 c0 -3 -4 -8 -10 -11 -5 -3 -10 -1 -10 4
0 6 5 11 10 11 6 0 10 -2 10 -4z m-1215 -26 c-3 -5 -14 -10 -23 -9 -14 0 -13
2 3 9 27 11 27 11 20 0z m365 0 c0 -5 -4 -10 -10 -10 -5 0 -10 5 -10 10 0 6 5
10 10 10 6 0 10 -4 10 -10z m600 -10 c0 -17 -2 -19 -14 -8 -10 9 -11 15 -2 20
16 11 16 10 16 -12z m175 10 c3 -5 1 -10 -4 -10 -6 0 -11 5 -11 10 0 6 2 10 4
10 3 0 8 -4 11 -10z m117 1 c-7 -4 -12 -13 -10 -18 2 -6 -1 -11 -7 -11 -5 0
-9 4 -7 9 1 5 -4 9 -10 9 -9 0 -8 4 2 10 8 5 22 10 30 10 12 0 12 -2 2 -9z
m-858 -16 c-4 -8 -11 -12 -16 -9 -6 4 -5 10 3 15 19 12 19 11 13 -6z m695 -22
c-1 -37 -1 -37 -8 -8 -7 28 -5 45 5 45 2 0 3 -17 3 -37z m-1299 13 c0 -11 -19
-15 -25 -6 -3 5 1 10 9 10 9 0 16 -2 16 -4z m561 -5 c-8 -5 -20 -7 -28 -4 -7
3 -13 0 -13 -6 0 -7 20 -11 50 -11 50 0 59 -7 39 -27 -7 -7 -3 -12 15 -17 25
-6 37 -26 16 -26 -18 0 -48 33 -43 47 4 11 0 14 -16 11 -12 -1 -21 -7 -21 -12
2 -9 -19 -26 -32 -26 -5 0 -7 3 -7 8 4 26 -3 34 -25 28 -14 -3 -28 -2 -31 4
-3 5 1 10 10 10 11 0 15 5 12 14 -4 10 6 14 41 14 31 1 42 -2 33 -7z m439 -2
c0 -5 -5 -8 -11 -6 -6 1 -15 -9 -20 -22 -8 -20 -7 -23 11 -18 11 3 20 2 21 -1
0 -4 2 -20 4 -37 3 -24 2 -27 -6 -12 -6 9 -7 22 -4 27 4 6 -8 10 -29 10 -21 0
-36 -5 -36 -12 0 -6 -3 -8 -7 -5 -3 4 -13 1 -21 -6 -13 -10 -15 -9 -9 5 4 11
0 18 -11 22 -10 3 -7 5 8 4 47 -1 60 2 60 12 0 6 -8 10 -17 11 -14 0 -13 2 5
9 12 5 22 13 22 18 0 4 9 8 20 9 11 1 20 -2 20 -8z m229 -26 c-13 -10 -33 -16
-45 -15 -12 2 -24 -4 -27 -12 -4 -9 -18 -16 -34 -16 l-28 0 30 20 c17 11 37
20 46 20 9 0 29 7 45 15 36 18 45 10 13 -12z m38 5 c-3 -8 -6 -5 -6 6 -1 11 2
17 5 13 3 -3 4 -12 1 -19z m-1307 2 c0 -5 -5 -10 -11 -10 -5 0 -7 5 -4 10 3 6
8 10 11 10 2 0 4 -4 4 -10z m251 -6 c10 -13 10 -17 -2 -24 -17 -11 -45 13 -35
29 10 15 21 14 37 -5z m469 -4 c0 -4 -7 -10 -15 -14 -8 -3 -15 -4 -15 -2 0 3
-3 11 -6 19 -4 12 0 14 15 10 12 -3 21 -9 21 -13z m-536 1 c7 -11 -14 -20 -31
-13 -7 2 -13 8 -13 13 0 12 37 12 44 0z m1216 5 c0 -3 -4 -8 -10 -11 -5 -3
-10 -1 -10 4 0 6 5 11 10 11 6 0 10 -2 10 -4z m-1330 -26 c-12 -23 -19 -24
-40 -9 -13 9 -12 10 3 5 11 -3 20 0 23 9 4 8 10 15 15 15 6 0 5 -9 -1 -20z
m-210 0 c0 -5 5 -10 11 -10 5 0 7 5 4 10 -7 11 9 11 45 0 l25 -8 -25 -1 -25
-1 25 -20 c20 -16 22 -20 8 -20 -26 0 -23 -39 4 -49 14 -5 17 -10 10 -15 -7
-4 -23 5 -37 20 -20 21 -28 25 -37 16 -7 -7 -19 -12 -29 -12 -16 0 -17 11 -3
78 4 22 24 32 24 12z m137 -4 c0 -7 -10 -13 -23 -13 -18 0 -20 2 -11 13 16 17
34 18 34 0z m329 -40 c2 -37 0 -43 -11 -33 -9 8 -10 19 -4 36 12 31 6 36 -16
15 -15 -16 -17 -16 -33 1 -16 16 -16 17 5 11 13 -4 27 -1 35 8 17 19 20 15 24
-38z m988 38 c3 -8 2 -12 -4 -9 -6 3 -10 10 -10 16 0 14 7 11 14 -7z m-1169
-4 c19 -8 19 -9 -2 -9 -12 -1 -25 4 -28 9 -7 12 2 12 30 0z m965 6 c0 -3 -4
-8 -10 -11 -5 -3 -10 -1 -10 4 0 6 5 11 10 11 6 0 10 -2 10 -4z m-997 -39 c16
-3 13 -5 -10 -6 -28 -1 -30 1 -25 22 5 17 7 18 10 5 2 -9 13 -19 25 -21z m513
-2 c-8 -23 -25 -9 -19 16 4 13 9 17 16 10 5 -5 7 -17 3 -26z m750 -9 c18 5 22
2 21 -18 -1 -15 -8 -24 -18 -24 -10 0 -15 6 -12 13 3 7 -2 13 -11 13 -9 0 -16
6 -16 14 0 8 -1 20 -3 28 -2 7 1 3 7 -9 7 -17 15 -21 32 -17z m90 -55 c-15
-14 -18 -14 -33 2 -10 9 -12 17 -6 17 6 0 14 8 16 18 2 9 3 7 2 -6 -1 -13 2
-21 9 -19 6 2 11 17 12 33 1 52 7 60 11 15 3 -31 0 -49 -11 -60z m-461 69
c-10 -11 -22 -20 -27 -20 -4 0 -3 9 4 20 7 11 19 20 27 20 11 0 10 -5 -4 -20z
m198 -1 c-6 -6 -23 -9 -39 -6 -29 4 -28 4 4 6 17 0 32 6 32 13 0 6 3 8 7 5 4
-4 2 -12 -4 -18z m107 -2 c-1 -7 -8 -25 -16 -42 -8 -16 -12 -22 -10 -13 3 10
-2 25 -11 34 -16 15 -16 17 2 30 19 14 35 10 35 -9z m-1330 3 c0 -5 -4 -10
-10 -10 -5 0 -10 5 -10 10 0 6 5 10 10 10 6 0 10 -4 10 -10z m373 -16 c-3 -9
0 -20 7 -24 13 -8 18 -51 9 -80 -3 -10 2 -14 14 -12 11 2 17 -4 17 -17 0 -17
-3 -18 -30 -8 -16 6 -30 14 -30 18 0 4 -18 5 -40 2 -36 -5 -40 -4 -34 13 8 21
53 63 69 64 7 0 9 15 7 36 -3 25 -1 35 6 30 6 -4 8 -14 5 -22z m-316 10 c-3
-3 -12 -4 -19 -1 -8 3 -5 6 6 6 11 1 17 -2 13 -5z m1063 -3 c0 -5 -6 -11 -12
-14 -7 -2 -10 -8 -6 -12 4 -4 14 -3 22 4 10 8 15 9 18 1 2 -8 21 -8 61 -2 31
5 57 6 57 2 0 -13 -24 -18 -53 -13 -16 3 -27 1 -27 -6 0 -5 -7 -8 -15 -4 -9 3
-22 -2 -30 -13 -13 -18 -14 -18 -20 -2 -4 10 -12 15 -18 11 -5 -3 -7 -1 -3 5
3 5 1 12 -6 14 -9 3 -8 9 2 21 17 18 30 22 30 8z m-140 -11 c0 -5 -7 -10 -16
-10 -8 0 -12 5 -9 10 3 6 10 10 16 10 5 0 9 -4 9 -10z m-755 -9 c-24 -5 -30
-11 -28 -31 1 -15 0 -18 -3 -7 -3 9 -10 15 -15 12 -14 -9 -11 2 7 19 8 9 27
15 42 15 27 -1 27 -1 -3 -8z m516 0 c7 11 9 11 9 1 0 -8 -9 -16 -20 -19 -11
-3 -20 -9 -20 -14 0 -5 -5 -9 -12 -9 -9 0 -9 3 -1 11 6 6 9 19 5 28 -5 14 -4
14 12 2 15 -13 19 -13 27 0z m-727 -17 c9 -24 7 -28 -9 -14 -17 14 -20 30 -6
30 5 0 12 -7 15 -16z m256 -4 c0 -11 -4 -20 -9 -20 -5 0 -7 9 -4 20 3 11 7 20
9 20 2 0 4 -9 4 -20z m42 -17 c-8 -7 -21 -13 -26 -13 -6 0 -5 4 2 9 7 4 12 12
11 17 -3 20 2 24 15 12 13 -11 13 -15 -2 -25z m363 27 c3 -5 1 -10 -4 -10 -6
0 -11 5 -11 10 0 6 2 10 4 10 3 0 8 -4 11 -10z m-98 -6 c-3 -3 -12 -4 -19 -1
-8 3 -5 6 6 6 11 1 17 -2 13 -5z m463 -3 c0 -6 -4 -13 -10 -16 -16 -10 -12
-28 5 -21 9 3 15 0 15 -9 0 -21 -39 -19 -47 2 -4 9 -1 19 5 21 7 2 12 8 12 14
0 6 -7 8 -15 4 -8 -3 -15 -1 -15 4 0 6 11 10 25 10 14 0 25 -4 25 -9z m317
-14 c-6 -20 -26 -19 -24 1 1 12 6 18 14 15 8 -3 12 -10 10 -16z m-1288 -14 c0
-25 -1 -25 -8 -8 -5 11 -7 23 -4 28 8 14 13 7 12 -20z m46 7 c15 12 35 6 35
-10 0 -5 -6 -7 -14 -4 -9 3 -20 -5 -30 -23 l-15 -28 1 45 c0 25 2 37 5 27 4
-14 8 -16 18 -7z m648 -1 c-4 -13 -9 -17 -15 -11 -11 11 -3 32 12 32 4 0 6 -9
3 -21z m444 -41 c-2 -13 -4 -3 -4 22 0 25 2 35 4 23 2 -13 2 -33 0 -45z
m-1337 31 c0 -6 -4 -7 -10 -4 -5 3 -10 11 -10 16 0 6 5 7 10 4 6 -3 10 -11 10
-16z m793 0 c-4 -14 -9 -17 -16 -10 -6 6 -25 12 -41 13 -25 1 -21 2 14 8 25 4
46 8 47 8 0 1 -1 -7 -4 -19z m-756 -14 c-4 -8 -11 -15 -17 -15 -14 0 -13 27 3
33 16 6 21 1 14 -18z m1183 6 c0 -4 -7 -8 -15 -8 -8 0 -15 6 -15 13 0 8 6 11
15 8 8 -4 15 -9 15 -13z m311 -14 c-17 -17 -13 -29 7 -23 13 4 27 -3 45 -24
15 -16 27 -32 27 -35 0 -12 -22 -3 -37 15 -12 14 -24 18 -42 13 -20 -5 -23 -3
-18 10 3 9 2 19 -3 22 -6 4 -10 11 -10 16 0 6 4 8 9 5 5 -3 12 4 16 17 4 15 8
18 12 9 3 -8 0 -19 -6 -25z m128 9 c-2 -2 -14 -7 -27 -11 -23 -7 -23 -6 -6 14
12 13 22 17 28 11 5 -5 8 -11 5 -14z m-1689 4 c0 -5 -4 -10 -10 -10 -5 0 -10
5 -10 10 0 6 5 10 10 10 6 0 10 -4 10 -10z m1150 -9 c16 -31 12 -36 -10 -11
-23 26 -24 30 -10 30 5 0 14 -9 20 -19z m129 -26 c0 -5 -4 -3 -9 5 -8 13 -10
12 -10 -4 0 -11 -2 -17 -5 -14 -4 3 -3 18 1 34 6 25 8 26 15 9 4 -11 8 -24 8
-30z m41 25 c0 -11 -2 -20 -4 -20 -2 0 -6 9 -9 20 -3 11 -1 20 4 20 5 0 9 -9
9 -20z m298 1 c3 -8 -1 -12 -9 -9 -7 2 -15 10 -17 17 -3 8 1 12 9 9 7 -2 15
-10 17 -17z m-1445 2 c-7 -2 -19 -2 -25 0 -7 3 -2 5 12 5 14 0 19 -2 13 -5z
m197 -3 c0 -5 -4 -10 -10 -10 -5 0 -10 5 -10 10 0 6 5 10 10 10 6 0 10 -4 10
-10z m17 -22 c-3 -7 -5 -2 -5 12 0 14 2 19 5 13 2 -7 2 -19 0 -25z m521 7 c-3
-3 -9 2 -12 12 -6 14 -5 15 5 6 7 -7 10 -15 7 -18z m487 16 c3 -5 1 -12 -5
-16 -5 -3 -10 1 -10 9 0 18 6 21 15 7z m-1282 -71 c4 0 6 -3 5 -7 -2 -5 -5 -7
-8 -6 -24 8 -34 6 -37 -8 -3 -13 2 -15 24 -12 26 4 26 3 8 -8 -11 -7 -26 -20
-32 -30 -8 -10 -21 -15 -33 -12 -25 7 -26 33 -2 40 26 6 17 53 -9 53 -21 0
-23 8 -10 28 7 11 9 10 15 -3 3 -9 10 -14 15 -10 5 3 12 1 16 -5 9 -15 25 -12
25 5 0 8 -8 16 -17 16 -17 1 -17 2 0 6 9 2 18 10 18 16 1 7 5 -5 8 -26 3 -21
9 -38 14 -37z m316 49 c-22 -13 -31 -11 -17 5 7 8 17 12 22 9 4 -3 2 -9 -5
-14z m347 -4 c-5 -20 -3 -25 14 -25 13 0 20 7 20 20 0 14 5 18 16 13 13 -5 13
-7 2 -14 -10 -7 -8 -9 7 -9 17 -1 16 -3 -5 -12 -48 -19 -114 -14 -80 7 6 4 8
15 5 26 -5 14 -2 19 10 19 13 0 16 -6 11 -25z m574 4 c0 -5 -4 -9 -10 -9 -5 0
-10 7 -10 16 0 8 5 12 10 9 6 -3 10 -10 10 -16z m100 17 c0 -3 -4 -8 -10 -11
-5 -3 -10 -1 -10 4 0 6 5 11 10 11 6 0 10 -2 10 -4z m17 -18 c-3 -8 -6 -5 -6
6 -1 11 2 17 5 13 3 -3 4 -12 1 -19z m-1287 -8 c0 -5 -10 -10 -22 -9 -22 0
-22 1 -3 9 11 5 21 9 23 9 1 1 2 -3 2 -9z m25 0 c3 -5 1 -10 -4 -10 -6 0 -11
5 -11 10 0 6 2 10 4 10 3 0 8 -4 11 -10z m680 0 c13 -6 15 -9 5 -9 -8 0 -22 4
-30 9 -18 12 -2 12 25 0z m344 -34 c1 -5 -7 -1 -18 10 -12 13 -15 21 -7 26 10
7 24 -13 25 -36z m301 13 c0 -11 7 -19 18 -20 14 0 14 -2 -3 -8 -16 -7 -21 -4
-25 13 -3 11 -11 22 -18 22 -25 3 -27 5 -13 13 20 13 41 2 41 -20z m161 10
c-13 -14 -26 -19 -38 -15 -15 6 -14 9 7 21 39 21 53 18 31 -6z m-1561 7 c0 -3
-4 -8 -10 -11 -5 -3 -10 -1 -10 4 0 6 5 11 10 11 6 0 10 -2 10 -4z m130 -17
c0 -11 -27 -12 -34 0 -3 4 -3 11 0 14 8 8 34 -3 34 -14z m1074 6 c25 -19 12
-33 -14 -17 -25 15 -25 15 -44 -4 -15 -14 -16 -14 -16 1 0 8 10 20 23 25 29
12 29 12 51 -5z m116 5 c0 -13 -28 -25 -38 -16 -3 4 0 11 8 16 20 13 30 12 30
0z m-1142 -8 c9 -6 6 -12 -13 -22 -14 -7 -28 -10 -32 -7 -3 4 2 7 12 7 14 0
15 3 5 15 -10 12 -10 15 1 15 8 0 20 -4 27 -8z m-318 -22 c0 -11 -4 -20 -10
-20 -5 0 -10 9 -10 20 0 11 5 20 10 20 6 0 10 -9 10 -20z m210 10 c0 -5 -5
-10 -11 -10 -5 0 -7 5 -4 10 3 6 8 10 11 10 2 0 4 -4 4 -10z m187 -12 c-3 -8
-6 -5 -6 6 -1 11 2 17 5 13 3 -3 4 -12 1 -19z m510 16 c-3 -3 -12 -4 -19 -1
-8 3 -5 6 6 6 11 1 17 -2 13 -5z m483 -3 c0 -12 49 -20 56 -10 7 12 24 12 24
0 0 -15 -40 -20 -71 -9 -28 9 -40 28 -19 28 6 0 10 -4 10 -9z m-927 -18 c-13
-8 -23 -25 -23 -37 -1 -19 -2 -19 -11 -4 -11 20 15 56 41 57 10 0 7 -5 -7 -16z
m737 13 c0 -3 -4 -8 -10 -11 -5 -3 -10 -1 -10 4 0 6 5 11 10 11 6 0 10 -2 10
-4z m60 -16 c0 -11 -4 -20 -9 -20 -5 0 -7 9 -4 20 3 11 7 20 9 20 2 0 4 -9 4
-20z m-905 -9 c-3 -6 -11 -11 -17 -11 -6 0 -6 6 2 15 14 17 26 13 15 -4z m530
9 c3 -5 2 -10 -4 -10 -5 0 -13 5 -16 10 -3 6 -2 10 4 10 5 0 13 -4 16 -10z
m435 -22 c0 -5 -7 -3 -15 6 -8 8 -15 18 -15 22 0 3 7 1 15 -6 8 -7 15 -17 15
-22z m-1298 -33 c-5 -46 -7 -47 -13 -20 l-7 30 -1 -32 c0 -18 -6 -33 -12 -33
-7 0 -9 12 -5 34 5 27 3 37 -11 46 -16 10 -16 10 4 5 13 -3 27 0 35 9 7 7 14
13 15 12 0 0 -2 -23 -5 -51z m193 45 c3 -6 -4 -10 -17 -10 -18 0 -20 2 -8 10
19 12 18 12 25 0z m299 -6 c3 -8 2 -12 -4 -9 -6 3 -10 10 -10 16 0 14 7 11 14
-7z m56 6 c0 -5 -4 -10 -9 -10 -6 0 -13 5 -16 10 -3 6 1 10 9 10 9 0 16 -4 16
-10z m240 0 c0 -5 -7 -10 -16 -10 -8 0 -12 5 -9 10 3 6 10 10 16 10 5 0 9 -4
9 -10z m412 -39 c-5 -3 -12 -13 -16 -21 -3 -8 -4 -3 -1 13 7 37 -2 34 -15 -5
l-10 -33 5 33 c3 18 1 31 -4 28 -5 -3 -12 1 -15 10 -5 13 -1 15 18 10 15 -4
28 -1 33 6 5 9 9 6 11 -11 2 -13 0 -26 -6 -30z m181 12 c-3 -7 2 -13 11 -13 9
0 16 -7 16 -15 0 -19 -19 -19 -26 0 -4 8 -10 12 -15 9 -5 -3 -6 2 -3 10 4 11
0 16 -15 16 -20 0 -27 10 -16 22 10 10 53 -16 48 -29z m-1237 11 c-4 -11 -2
-15 7 -11 19 7 43 -8 28 -17 -6 -4 -11 -2 -11 4 0 6 -7 4 -17 -5 -12 -12 -13
-19 -4 -24 13 -8 5 -41 -11 -41 -5 0 -20 11 -34 25 -23 23 -24 27 -9 41 9 9
19 13 23 10 3 -4 0 -11 -8 -16 -8 -5 -11 -12 -7 -16 13 -14 37 18 31 42 -4 15
-2 24 6 24 7 0 10 -7 6 -16z m454 2 c0 -18 -20 -31 -42 -28 -9 2 -19 -2 -23
-8 -3 -6 3 -10 14 -10 12 0 21 -4 21 -10 0 -16 -37 -12 -44 5 -3 8 -12 12 -19
9 -8 -3 -17 2 -21 12 -5 14 -4 15 9 4 14 -11 19 -7 16 13 -2 11 52 4 61 -8 4
-5 8 0 8 13 0 12 5 22 10 22 6 0 10 -6 10 -14z m895 4 c3 -5 -1 -10 -10 -10
-9 0 -13 5 -10 10 3 6 8 10 10 10 2 0 7 -4 10 -10z m-1258 -6 c-3 -3 -12 -4
-19 -1 -8 3 -5 6 6 6 11 1 17 -2 13 -5z m43 2 c0 -2 -7 -6 -15 -10 -8 -3 -15
-1 -15 4 0 6 7 10 15 10 8 0 15 -2 15 -4z m187 -2 c-3 -3 -12 -4 -19 -1 -8 3
-5 6 6 6 11 1 17 -2 13 -5z m441 -14 c11 -17 10 -23 -4 -37 -16 -16 -16 -16
-11 2 7 23 -1 39 -23 48 -11 4 -9 6 5 6 11 1 26 -8 33 -19z m372 -1 c0 -5 -4
-9 -10 -9 -5 0 -10 7 -10 16 0 8 5 12 10 9 6 -3 10 -10 10 -16z m160 13 c0
-13 -12 -22 -22 -16 -10 6 -1 24 13 24 5 0 9 -4 9 -8z m127 2 c-3 -3 -12 -4
-19 -1 -8 3 -5 6 6 6 11 1 17 -2 13 -5z m48 -13 c-3 -6 -23 -10 -43 -10 -34 2
-34 2 -7 6 17 3 34 9 39 14 12 11 20 4 11 -10z m65 15 c0 -2 3 -11 6 -20 3 -9
1 -16 -5 -16 -6 0 -11 7 -11 15 0 8 -6 15 -14 15 -9 0 -17 -16 -21 -41 -4 -22
-9 -38 -11 -36 -3 2 -2 23 2 46 6 35 10 41 30 41 13 0 24 -2 24 -4z m-1280
-37 c0 -13 7 -19 23 -20 19 0 19 -1 4 -7 -23 -10 -97 -2 -97 9 0 5 11 7 25 3
22 -5 25 -3 25 21 0 15 4 24 10 20 6 -3 10 -15 10 -26z m360 12 c0 -22 -16
-36 -24 -22 -8 12 3 41 15 41 5 0 9 -9 9 -19z m90 9 c0 -5 -4 -10 -10 -10 -5
0 -10 5 -10 10 0 6 5 10 10 10 6 0 10 -4 10 -10z m-591 -26 c2 -2 -5 -4 -16
-4 -12 0 -23 7 -27 15 -5 13 -2 14 17 4 12 -6 24 -13 26 -15z m626 17 c3 -5 1
-12 -5 -16 -5 -3 -10 1 -10 9 0 18 6 21 15 7z m450 0 c7 -12 -12 -24 -25 -16
-11 7 -4 25 10 25 5 0 11 -4 15 -9z m150 -1 c3 -5 -3 -10 -15 -10 -12 0 -18 5
-15 10 3 6 10 10 15 10 5 0 12 -4 15 -10z m45 0 c0 -5 -7 -10 -15 -10 -8 0
-15 5 -15 10 0 6 7 10 15 10 8 0 15 -4 15 -10z m-1220 -9 c0 -5 3 -18 7 -28 6
-16 5 -16 -10 -4 -19 15 -23 41 -7 41 6 0 10 -4 10 -9z m-100 -21 c0 -13 -11
-13 -30 0 -12 8 -11 10 8 10 12 0 22 -4 22 -10z m1393 3 c-7 -2 -19 -2 -25 0
-7 3 -2 5 12 5 14 0 19 -2 13 -5z m-1003 -13 c0 -5 -4 -10 -10 -10 -5 0 -10 5
-10 10 0 6 5 10 10 10 6 0 10 -4 10 -10z m660 0 c0 -5 -4 -10 -10 -10 -5 0
-10 5 -10 10 0 6 5 10 10 10 6 0 10 -4 10 -10z m40 0 c0 -5 -4 -10 -10 -10 -5
0 -10 5 -10 10 0 6 5 10 10 10 6 0 10 -4 10 -10z m-505 -21 c-10 -15 -25 -10
-19 6 4 8 10 12 15 9 5 -3 7 -10 4 -15z m802 6 c8 -9 13 -19 9 -22 -3 -4 -12
1 -19 10 -6 8 -23 18 -37 20 -24 4 -24 4 3 6 16 0 35 -6 44 -14z m-1407 1 c0
-11 -19 -15 -25 -6 -3 5 1 10 9 10 9 0 16 -2 16 -4z m380 -4 c0 -4 -15 -9 -32
-10 -25 -2 -29 0 -18 8 18 12 50 13 50 2z m-350 -6 c0 -3 -4 -8 -10 -11 -5 -3
-10 -1 -10 4 0 6 5 11 10 11 6 0 10 -2 10 -4z m1190 -5 c0 -5 -9 -7 -20 -4
-11 3 -20 7 -20 9 0 2 9 4 20 4 11 0 20 -4 20 -9z"/>
<path d="M2800 1550 c0 -5 5 -10 10 -10 6 0 10 5 10 10 0 6 -4 10 -10 10 -5 0
-10 -4 -10 -10z"/>
<path d="M2493 1543 c9 -2 25 -2 35 0 9 3 1 5 -18 5 -19 0 -27 -2 -17 -5z"/>
<path d="M2390 1480 c20 -13 63 -13 55 0 -3 6 -21 10 -38 10 -24 0 -28 -3 -17
-10z"/>
<path d="M2530 1360 c0 -5 7 -10 15 -10 8 0 15 5 15 10 0 6 -7 10 -15 10 -8 0
-15 -4 -15 -10z"/>
<path d="M2570 1359 c0 -5 5 -7 10 -4 6 3 10 8 10 11 0 2 -4 4 -10 4 -5 0 -10
-5 -10 -11z"/>
<path d="M2508 1322 c-31 -19 -38 -56 -12 -66 23 -9 34 -7 34 4 0 6 -6 10 -14
10 -8 0 -17 4 -20 9 -3 4 6 6 21 3 18 -3 24 -1 19 7 -4 6 -15 11 -24 12 -9 0
-2 5 16 10 17 5 32 14 32 19 0 14 -21 11 -52 -8z"/>
<path d="M1927 1210 c-83 -32 -106 -65 -25 -37 24 9 55 18 71 21 15 4 27 13
27 21 0 19 -14 18 -73 -5z"/>
<path d="M3057 1413 c-4 -3 1 -12 9 -21 9 -9 19 -11 24 -6 6 6 2 14 -9 21 -10
7 -21 9 -24 6z"/>
<path d="M1386 957 c-7 -27 0 -33 19 -17 19 16 19 26 1 33 -9 4 -16 -3 -20
-16z"/>
<path d="M1076 332 c-3 -6 -1 -14 5 -17 15 -10 25 3 12 16 -7 7 -13 7 -17 1z"/>
<path d="M1040 314 c0 -8 5 -12 10 -9 6 4 8 11 5 16 -9 14 -15 11 -15 -7z"/>
<path d="M2480 320 c0 -5 5 -10 10 -10 6 0 10 5 10 10 0 6 -4 10 -10 10 -5 0
-10 -4 -10 -10z"/>
<path d="M1506 229 c-15 -26 -15 -29 -2 -29 9 0 16 7 16 15 0 9 9 15 21 15 11
0 19 5 17 12 -8 22 -35 15 -52 -13z"/>
<path d="M1060 99 c0 -5 5 -7 10 -4 6 3 10 8 10 11 0 2 -4 4 -10 4 -5 0 -10
-5 -10 -11z"/>
<path d="M1150 60 c0 -5 5 -10 10 -10 6 0 10 5 10 10 0 6 -4 10 -10 10 -5 0
-10 -4 -10 -10z"/>
<path d="M1131 3168 c16 -32 187 -176 257 -215 25 -15 62 -17 62 -4 0 5 -14
15 -32 22 -32 13 -41 19 -85 59 -12 10 -39 30 -60 44 -21 13 -48 33 -60 45
-12 12 -27 21 -33 21 -5 0 -10 3 -10 8 0 4 -12 15 -25 25 -25 18 -25 18 -14
-5z"/>
<path d="M1228 3154 c-16 -15 149 -140 174 -132 16 6 -7 27 -124 117 -27 22
-40 25 -50 15z"/>
<path d="M2142 2825 c10 -22 8 -30 -11 -56 -28 -38 -24 -70 12 -87 15 -8 32
-24 37 -36 4 -12 15 -28 24 -35 14 -12 16 -10 16 12 0 37 -18 71 -46 88 l-24
15 21 42 c21 41 21 44 4 62 -27 30 -48 27 -33 -5z"/>
<path d="M1177 2833 c-13 -12 -7 -22 49 -85 61 -69 80 -82 69 -49 -5 17 -2 21
14 21 19 0 19 1 -3 25 -27 29 -108 95 -117 95 -3 0 -9 -3 -12 -7z"/>
<path d="M1839 2763 c10 -19 73 -70 130 -106 19 -12 42 -27 50 -32 9 -6 37
-23 64 -39 40 -24 281 -265 273 -273 -8 -8 -57 26 -71 49 -9 16 -21 28 -26 28
-6 0 -22 14 -36 30 -18 22 -33 30 -58 30 -19 0 -36 4 -39 9 -5 8 -53 23 -86
26 -8 1 -28 7 -43 14 -16 6 -65 11 -109 11 -65 0 -91 -5 -133 -25 -53 -25
-125 -99 -125 -129 0 -31 29 -13 74 48 40 53 117 86 200 86 60 0 125 -15 136
-31 3 -4 17 -10 32 -13 40 -7 66 -23 154 -97 95 -79 116 -87 162 -59 31 19 32
21 32 92 -1 110 -38 225 -48 151 -4 -28 -31 -30 -64 -4 -13 11 -41 22 -61 26
-20 4 -37 10 -37 14 0 4 -6 8 -12 8 -38 3 -186 73 -223 106 -82 73 -112 97
-128 97 -14 0 -16 -4 -8 -17z"/>
<path d="M3273 2639 c6 -21 20 -89 33 -156 2 -13 9 -23 15 -23 6 0 8 8 5 18
-3 9 -8 50 -12 90 -5 58 -11 75 -27 83 -18 10 -19 9 -14 -12z"/>
<path d="M1111 2508 c12 -25 106 -118 118 -118 21 0 2 36 -45 85 -56 58 -95
75 -73 33z"/>
<path d="M2929 2499 c-11 -27 -10 -39 4 -79 23 -66 22 -76 -18 -122 -19 -23
-32 -45 -29 -49 8 -14 30 -11 44 6 7 8 19 15 28 15 31 0 172 106 172 130 0 6
16 10 35 10 19 0 35 5 35 10 0 18 -25 21 -71 10 -24 -6 -54 -14 -66 -17 -16
-4 -25 0 -29 13 -4 11 -15 38 -26 62 -25 54 -59 58 -79 11z"/>
<path d="M2457 2405 c-4 -8 -2 -17 3 -20 6 -4 10 3 10 14 0 25 -6 27 -13 6z"/>
<path d="M2000 2325 c-9 -11 -9 -28 3 -80 l15 -67 -33 -14 c-19 -8 -46 -14
-60 -14 -41 0 -101 -28 -87 -42 8 -8 22 -6 51 6 47 18 181 33 181 20 0 -5 -14
-15 -31 -23 -39 -17 -24 -38 18 -25 15 5 66 7 113 4 85 -6 119 2 90 20 -8 5
-15 15 -15 22 0 8 -19 15 -51 19 -63 8 -74 14 -74 41 0 11 -7 44 -15 72 -11
39 -22 56 -41 65 -33 15 -49 14 -64 -4z"/>
<path d="M3741 2053 c-8 -16 -4 -18 35 -19 l43 -1 -23 18 c-30 24 -43 24 -55
2z"/>
<path d="M3051 783 c0 -16 6 -46 14 -68 l13 -40 1 68 c1 53 -2 67 -14 67 -10
0 -15 -9 -14 -27z"/>
<path d="M3110 720 c0 -27 5 -50 10 -50 6 0 10 23 10 50 0 28 -4 50 -10 50 -5
0 -10 -22 -10 -50z"/>
<path d="M3141 56 c2 -2 18 -6 34 -10 22 -5 26 -4 15 4 -14 9 -59 15 -49 6z"/>
<path d="M2224 35 c-3 -8 -4 -20 -2 -27 3 -7 7 -1 10 15 6 29 1 36 -8 12z"/>
</g>
</svg>
